<?xml version="1.0" encoding="UTF-8"?>
<!DOCTYPE svg PUBLIC "-//W3C//DTD SVG 1.1//EN" "http://www.w3.org/Graphics/SVG/1.1/DTD/svg11.dtd">
<svg xmlns="http://www.w3.org/2000/svg" version="1.1" width="32px" height="32px" style="shape-rendering:geometricPrecision; text-rendering:geometricPrecision; image-rendering:optimizeQuality; fill-rule:evenodd; clip-rule:evenodd" xmlns:xlink="http://www.w3.org/1999/xlink">
<g><path style="opacity:0.819" fill="#fee479" d="M 1.5,-0.5 C 2.16667,-0.5 2.83333,-0.5 3.5,-0.5C 3.83333,0.5 4.5,1.16667 5.5,1.5C 5.5,2.5 5.5,3.5 5.5,4.5C 5.16667,5.16667 4.83333,5.83333 4.5,6.5C 2.70848,6.63404 1.04181,6.30071 -0.5,5.5C -0.5,3.83333 -0.5,2.16667 -0.5,0.5C 0.491622,0.67158 1.15829,0.338246 1.5,-0.5 Z"/></g>
<g><path style="opacity:0.819" fill="#fdb855" d="M 27.5,-0.5 C 28.1667,-0.5 28.8333,-0.5 29.5,-0.5C 29.8417,0.338246 30.5084,0.67158 31.5,0.5C 31.5,2.16667 31.5,3.83333 31.5,5.5C 29.9582,6.30071 28.2915,6.63404 26.5,6.5C 26.1667,5.83333 25.8333,5.16667 25.5,4.5C 25.5,3.5 25.5,2.5 25.5,1.5C 26.5,1.16667 27.1667,0.5 27.5,-0.5 Z"/></g>
<g><path style="opacity:0.763" fill="#cddbfa" d="M 25.5,1.5 C 25.5,2.5 25.5,3.5 25.5,4.5C 24.1667,4.5 23.5,5.16667 23.5,6.5C 21.9731,6.57298 20.9731,5.90632 20.5,4.5C 20.5,3.5 20.5,2.5 20.5,1.5C 22.1667,1.5 23.8333,1.5 25.5,1.5 Z"/></g>
<g><path style="opacity:0.786" fill="#e5f0fa" d="M 5.5,1.5 C 7.16667,1.5 8.83333,1.5 10.5,1.5C 10.5,2.5 10.5,3.5 10.5,4.5C 10.0269,5.90632 9.02694,6.57298 7.5,6.5C 7.5,5.16667 6.83333,4.5 5.5,4.5C 5.5,3.5 5.5,2.5 5.5,1.5 Z"/></g>
<g><path style="opacity:1" fill="#93e271" d="M 15.5,4.5 C 15.5,5.83333 15.5,7.16667 15.5,8.5C 12.7026,8.96659 11.3692,10.6333 11.5,13.5C 10.5269,15.9479 10.1936,18.6146 10.5,21.5C 12.1667,21.5 13.8333,21.5 15.5,21.5C 16.8333,21.5 18.1667,21.5 19.5,21.5C 18.4324,22.4345 17.099,22.7678 15.5,22.5C 15.5,24.5 15.5,26.5 15.5,28.5C 8.79054,23.5883 5.79054,17.0883 6.5,9C 9.8057,8.01384 12.8057,6.51384 15.5,4.5 Z"/></g>
<g><path style="opacity:1" fill="#53c87a" d="M 15.5,4.5 C 18.1943,6.51384 21.1943,8.01384 24.5,9C 25.2095,17.0883 22.2095,23.5883 15.5,28.5C 15.5,26.5 15.5,24.5 15.5,22.5C 17.099,22.7678 18.4324,22.4345 19.5,21.5C 20.8333,18.8333 20.8333,16.1667 19.5,13.5C 19.6308,10.6333 18.2974,8.96659 15.5,8.5C 15.5,7.16667 15.5,5.83333 15.5,4.5 Z"/></g>
<g><path style="opacity:0.869" fill="#56ce79" d="M 15.5,1.5 C 15.5,2.5 15.5,3.5 15.5,4.5C 12.8057,6.51384 9.8057,8.01384 6.5,9C 5.79054,17.0883 8.79054,23.5883 15.5,28.5C 15.3284,29.4916 15.6618,30.1583 16.5,30.5C 16.5,30.8333 16.5,31.1667 16.5,31.5C 15.8333,31.5 15.1667,31.5 14.5,31.5C 13.5,29.8333 12.1667,28.5 10.5,27.5C 10.5,25.5 9.5,24.5 7.5,24.5C 6.83333,23.1667 6.16667,21.8333 5.5,20.5C 5.73731,19.209 5.40397,18.209 4.5,17.5C 4.16667,16.8333 3.83333,16.1667 3.5,15.5C 4.62495,14.6522 4.62495,13.6522 3.5,12.5C 3.32526,10.3792 3.65859,8.3792 4.5,6.5C 5.5,6.5 6.5,6.5 7.5,6.5C 9.02694,6.57298 10.0269,5.90632 10.5,4.5C 12.3325,3.75152 13.9991,2.75152 15.5,1.5 Z"/></g>
<g><path style="opacity:0.846" fill="#3e9d79" d="M 15.5,1.5 C 17.0009,2.75152 18.6675,3.75152 20.5,4.5C 20.9731,5.90632 21.9731,6.57298 23.5,6.5C 24.5,6.5 25.5,6.5 26.5,6.5C 27.3414,8.3792 27.6747,10.3792 27.5,12.5C 26.375,13.6522 26.375,14.6522 27.5,15.5C 27.1667,16.1667 26.8333,16.8333 26.5,17.5C 25.596,18.209 25.2627,19.209 25.5,20.5C 24.8333,21.8333 24.1667,23.1667 23.5,24.5C 21.5,24.5 20.5,25.5 20.5,27.5C 19.205,28.4884 17.8717,29.4884 16.5,30.5C 15.6618,30.1583 15.3284,29.4916 15.5,28.5C 22.2095,23.5883 25.2095,17.0883 24.5,9C 21.1943,8.01384 18.1943,6.51384 15.5,4.5C 15.5,3.5 15.5,2.5 15.5,1.5 Z"/></g>
<g><path style="opacity:1" fill="#48516e" d="M 15.5,8.5 C 18.2974,8.96659 19.6308,10.6333 19.5,13.5C 18.8333,13.5 18.1667,13.5 17.5,13.5C 17.5852,12.0047 16.9185,11.0047 15.5,10.5C 14.3578,11.8262 13.0245,12.8262 11.5,13.5C 11.3692,10.6333 12.7026,8.96659 15.5,8.5 Z"/></g>
<g><path style="opacity:0.848" fill="#e4f0f9" d="M -0.5,12.5 C 0.833333,12.5 2.16667,12.5 3.5,12.5C 4.62495,13.6522 4.62495,14.6522 3.5,15.5C 2.16667,15.5 0.833333,15.5 -0.5,15.5C -0.5,14.5 -0.5,13.5 -0.5,12.5 Z"/></g>
<g><path style="opacity:1" fill="#ede070" d="M 17.5,13.5 C 15.9519,13.8212 15.2852,14.8212 15.5,16.5C 14.1667,17.1667 14.1667,17.8333 15.5,18.5C 15.5,19.5 15.5,20.5 15.5,21.5C 13.8333,21.5 12.1667,21.5 10.5,21.5C 10.1936,18.6146 10.5269,15.9479 11.5,13.5C 13.0245,12.8262 14.3578,11.8262 15.5,10.5C 16.9185,11.0047 17.5852,12.0047 17.5,13.5 Z"/></g>
<g><path style="opacity:1" fill="#fab34d" d="M 17.5,13.5 C 18.1667,13.5 18.8333,13.5 19.5,13.5C 20.8333,16.1667 20.8333,18.8333 19.5,21.5C 18.1667,21.5 16.8333,21.5 15.5,21.5C 15.5,20.5 15.5,19.5 15.5,18.5C 16.8333,17.8333 16.8333,17.1667 15.5,16.5C 15.2852,14.8212 15.9519,13.8212 17.5,13.5 Z"/></g>
<g><path style="opacity:0.85" fill="#cadbf9" d="M 27.5,12.5 C 28.8333,12.5 30.1667,12.5 31.5,12.5C 31.5,13.5 31.5,14.5 31.5,15.5C 30.1667,15.5 28.8333,15.5 27.5,15.5C 26.375,14.6522 26.375,13.6522 27.5,12.5 Z"/></g>
<g><path style="opacity:0.563" fill="#e4f0f9" d="M 4.5,17.5 C 5.40397,18.209 5.73731,19.209 5.5,20.5C 4.16667,20.5 2.83333,20.5 1.5,20.5C 1.5,19.5 1.5,18.5 1.5,17.5C 2.5,17.5 3.5,17.5 4.5,17.5 Z"/></g>
<g><path style="opacity:1" fill="#3d446f" d="M 15.5,16.5 C 16.8333,17.1667 16.8333,17.8333 15.5,18.5C 14.1667,17.8333 14.1667,17.1667 15.5,16.5 Z"/></g>
<g><path style="opacity:0.764" fill="#cbd9f9" d="M 26.5,17.5 C 27.5,17.5 28.5,17.5 29.5,17.5C 29.5,18.5 29.5,19.5 29.5,20.5C 28.1667,20.5 26.8333,20.5 25.5,20.5C 25.2627,19.209 25.596,18.209 26.5,17.5 Z"/></g>
<g><path style="opacity:0.846" fill="#fee479" d="M 5.5,24.5 C 5.5,25.5 5.5,26.5 5.5,27.5C 3.6208,28.3414 1.6208,28.6747 -0.5,28.5C -0.5,26.8333 -0.5,25.1667 -0.5,23.5C 1.90073,21.9378 3.90073,22.2712 5.5,24.5 Z"/></g>
<g><path style="opacity:0.784" fill="#fdb954" d="M 31.5,23.5 C 31.5,25.1667 31.5,26.8333 31.5,28.5C 29.3792,28.6747 27.3792,28.3414 25.5,27.5C 25.5,26.5 25.5,25.5 25.5,24.5C 27.0993,22.2712 29.0993,21.9378 31.5,23.5 Z"/></g>
<g><path style="opacity:0.914" fill="#dceef4" d="M 5.5,24.5 C 6.16667,24.5 6.83333,24.5 7.5,24.5C 9.5,24.5 10.5,25.5 10.5,27.5C 8.83333,27.5 7.16667,27.5 5.5,27.5C 5.5,26.5 5.5,25.5 5.5,24.5 Z"/></g>
<g><path style="opacity:0.914" fill="#c6d8f4" d="M 23.5,24.5 C 24.1667,24.5 24.8333,24.5 25.5,24.5C 25.5,25.5 25.5,26.5 25.5,27.5C 23.8333,27.5 22.1667,27.5 20.5,27.5C 20.5,25.5 21.5,24.5 23.5,24.5 Z"/></g>
</svg>
