<?xml version="1.0" encoding="UTF-8"?>
<!DOCTYPE svg PUBLIC "-//W3C//DTD SVG 1.1//EN" "http://www.w3.org/Graphics/SVG/1.1/DTD/svg11.dtd">
<svg xmlns="http://www.w3.org/2000/svg" version="1.1" width="64px" height="64px" style="shape-rendering:geometricPrecision; text-rendering:geometricPrecision; image-rendering:optimizeQuality; fill-rule:evenodd; clip-rule:evenodd" xmlns:xlink="http://www.w3.org/1999/xlink">
<g><path style="opacity:0.985" fill="#4cae50" d="M 23.5,-0.5 C 28.8333,-0.5 34.1667,-0.5 39.5,-0.5C 51.8333,3.16667 59.8333,11.1667 63.5,23.5C 63.5,28.8333 63.5,34.1667 63.5,39.5C 59.8333,51.8333 51.8333,59.8333 39.5,63.5C 34.1667,63.5 28.8333,63.5 23.5,63.5C 11.1667,59.8333 3.16667,51.8333 -0.5,39.5C -0.5,34.1667 -0.5,28.8333 -0.5,23.5C 3.16667,11.1667 11.1667,3.16667 23.5,-0.5 Z"/></g>
<g><path style="opacity:1" fill="#fefefe" d="M 27.5,14.5 C 30.1667,14.5 32.8333,14.5 35.5,14.5C 35.5,18.8333 35.5,23.1667 35.5,27.5C 39.8333,27.5 44.1667,27.5 48.5,27.5C 48.5,30.1667 48.5,32.8333 48.5,35.5C 44.1667,35.5 39.8333,35.5 35.5,35.5C 35.5,39.8333 35.5,44.1667 35.5,48.5C 32.8333,48.5 30.1667,48.5 27.5,48.5C 27.5,44.1667 27.5,39.8333 27.5,35.5C 23.1667,35.5 18.8333,35.5 14.5,35.5C 14.5,32.8333 14.5,30.1667 14.5,27.5C 18.8333,27.5 23.1667,27.5 27.5,27.5C 27.5,23.1667 27.5,18.8333 27.5,14.5 Z"/></g>
</svg>
