<?xml version="1.0" encoding="UTF-8"?>
<!DOCTYPE svg PUBLIC "-//W3C//DTD SVG 1.1//EN" "http://www.w3.org/Graphics/SVG/1.1/DTD/svg11.dtd">
<svg xmlns="http://www.w3.org/2000/svg" version="1.1" width="32px" height="32px" style="shape-rendering:geometricPrecision; text-rendering:geometricPrecision; image-rendering:optimizeQuality; fill-rule:evenodd; clip-rule:evenodd" xmlns:xlink="http://www.w3.org/1999/xlink">
<g><path style="opacity:0.396" fill="#101010" d="M 10.5,-0.5 C 12.1667,-0.5 13.8333,-0.5 15.5,-0.5C 17.9686,0.317095 20.6353,0.817095 23.5,1C 24.2638,3.06934 24.7638,5.23601 25,7.5C 26.049,5.89339 27.549,5.22672 29.5,5.5C 29.5,8.5 29.5,11.5 29.5,14.5C 28.8354,12.6309 28.1687,10.6309 27.5,8.5C 26.1667,12.1667 26.1667,15.8333 27.5,19.5C 28.1719,18.0508 28.8386,16.7175 29.5,15.5C 29.7335,20.8947 29.4002,26.228 28.5,31.5C 27.8333,31.5 27.1667,31.5 26.5,31.5C 25.1849,16.9887 24.5183,16.9887 24.5,31.5C 16.8333,31.5 9.16667,31.5 1.5,31.5C 1.5,24.5 1.5,17.5 1.5,10.5C 2.49071,16.979 2.82404,23.6457 2.5,30.5C 9.16667,30.5 15.8333,30.5 22.5,30.5C 23.4936,21.3483 23.8269,12.015 23.5,2.5C 21.8008,2.33982 20.1341,2.50649 18.5,3C 20.3427,3.1587 21.0093,3.6587 20.5,4.5C 19.1667,4.5 17.8333,4.5 16.5,4.5C 12.6579,5.53921 8.6579,5.53921 4.5,4.5C 4.5,12.5 4.5,20.5 4.5,28.5C 9.83333,28.5 15.1667,28.5 20.5,28.5C 21.1667,28.5 21.5,28.8333 21.5,29.5C 15.5,29.5 9.5,29.5 3.5,29.5C 3.5,20.8333 3.5,12.1667 3.5,3.5C 8.50002,2.99692 8.16669,2.66359 2.5,2.5C 2.80155,5.0593 2.46822,7.39263 1.5,9.5C 1.5,6.5 1.5,3.5 1.5,0.5C 4.7131,0.810002 7.7131,0.476669 10.5,-0.5 Z"/></g>
<g><path style="opacity:1" fill="#e8bc51" d="M 16.5,4.5 C 13.6035,4.87473 10.9368,4.37473 8.5,3C 10.0762,2.56037 11.4096,1.72704 12.5,0.5C 14.3747,1.40947 15.708,2.7428 16.5,4.5 Z"/></g>
<g><path style="opacity:1" fill="#eff2f3" d="M 16.5,4.5 C 17.8333,4.5 19.1667,4.5 20.5,4.5C 20.7334,12.6006 20.7334,20.6006 20.5,28.5C 15.1667,28.5 9.83333,28.5 4.5,28.5C 4.5,20.5 4.5,12.5 4.5,4.5C 8.6579,5.53921 12.6579,5.53921 16.5,4.5 Z"/></g>
<g><path style="opacity:1" fill="#5f5f5f" d="M 22.5,30.5 C 22.5,29.8333 22.1667,29.5 21.5,29.5C 21.5,28.8333 21.1667,28.5 20.5,28.5C 20.7334,20.6006 20.7334,12.6006 20.5,4.5C 21.0093,3.6587 20.3427,3.1587 18.5,3C 20.1341,2.50649 21.8008,2.33982 23.5,2.5C 23.8269,12.015 23.4936,21.3483 22.5,30.5 Z"/></g>
<g><path style="opacity:1" fill="#9a9c9d" d="M 18.5,8.5 C 14.5,8.5 10.5,8.5 6.5,8.5C 6.79106,7.35089 7.62439,6.68423 9,6.5C 12.3501,6.94582 15.5167,7.61248 18.5,8.5 Z"/></g>
<g><path style="opacity:1" fill="#a4a4a4" d="M 21.5,29.5 C 22.1667,29.5 22.5,29.8333 22.5,30.5C 15.8333,30.5 9.16667,30.5 2.5,30.5C 2.82404,23.6457 2.49071,16.979 1.5,10.5C 1.5,10.1667 1.5,9.83333 1.5,9.5C 2.46822,7.39263 2.80155,5.0593 2.5,2.5C 8.16669,2.66359 8.50002,2.99692 3.5,3.5C 3.5,12.1667 3.5,20.8333 3.5,29.5C 9.5,29.5 15.5,29.5 21.5,29.5 Z"/></g>
<g><path style="opacity:1" fill="#696f79" d="M 6.5,8.5 C 10.5,8.5 14.5,8.5 18.5,8.5C 19.7911,9.54166 19.7911,10.7083 18.5,12C 9.16667,13 9.16667,14 18.5,15C 19.7911,16.2917 19.7911,17.4583 18.5,18.5C 14.5,18.5 10.5,18.5 6.5,18.5C 6.5,15.1667 6.5,11.8333 6.5,8.5 Z"/></g>
<g><path style="opacity:1" fill="#8a9dbd" d="M 7.5,9.5 C 10.8984,9.17964 14.2317,9.51298 17.5,10.5C 15.8333,10.8333 14.1667,11.1667 12.5,11.5C 10.3603,11.4439 8.69363,10.7773 7.5,9.5 Z"/></g>
<g><path style="opacity:1" fill="#8d9fca" d="M 29.5,14.5 C 29.5,14.8333 29.5,15.1667 29.5,15.5C 28.8386,16.7175 28.1719,18.0508 27.5,19.5C 26.1667,15.8333 26.1667,12.1667 27.5,8.5C 28.1687,10.6309 28.8354,12.6309 29.5,14.5 Z"/></g>
<g><path style="opacity:1" fill="#999b9c" d="M 6.5,18.5 C 10.5,18.5 14.5,18.5 18.5,18.5C 15.8411,18.9174 13.5078,19.9174 11.5,21.5C 9.83333,21.5 8.16667,21.5 6.5,21.5C 6.5,20.5 6.5,19.5 6.5,18.5 Z"/></g>
<g><path style="opacity:1" fill="#94a5c3" d="M 18.5,21.5 C 19.8333,22.8333 19.8333,24.1667 18.5,25.5C 14.9792,24.8337 11.3125,24.1671 7.5,23.5C 11.3125,22.8329 14.9792,22.1663 18.5,21.5 Z"/></g>
<g><path style="opacity:1" fill="#2b2e32" d="M 6.5,21.5 C 8.16667,21.5 9.83333,21.5 11.5,21.5C 13.8333,21.5 16.1667,21.5 18.5,21.5C 14.9792,22.1663 11.3125,22.8329 7.5,23.5C 11.3125,24.1671 14.9792,24.8337 18.5,25.5C 14.5,25.5 10.5,25.5 6.5,25.5C 6.5,24.1667 6.5,22.8333 6.5,21.5 Z"/></g>
<g><path style="opacity:1" fill="#646464" d="M 26.5,20.5 C 27.7479,21.3339 28.4146,22.6672 28.5,24.5C 28.5637,26.3893 28.0637,28.0559 27,29.5C 26.502,26.5184 26.3354,23.5184 26.5,20.5 Z"/></g>
</svg>
