<?xml version="1.0" encoding="UTF-8"?>
<!DOCTYPE svg PUBLIC "-//W3C//DTD SVG 1.1//EN" "http://www.w3.org/Graphics/SVG/1.1/DTD/svg11.dtd">
<svg xmlns="http://www.w3.org/2000/svg" version="1.1" width="32px" height="32px" style="shape-rendering:geometricPrecision; text-rendering:geometricPrecision; image-rendering:optimizeQuality; fill-rule:evenodd; clip-rule:evenodd" xmlns:xlink="http://www.w3.org/1999/xlink">
<g><path style="opacity:0.893" fill="#ece0ab" d="M 7.5,-0.5 C 13.8333,-0.5 20.1667,-0.5 26.5,-0.5C 26.7828,0.28913 27.2828,0.955796 28,1.5C 28.4998,11.1609 28.6665,20.8276 28.5,30.5C 26.901,30.2322 25.5676,30.5655 24.5,31.5C 23.5,31.5 22.5,31.5 21.5,31.5C 20.8333,30.1667 20.1667,30.1667 19.5,31.5C 18.5,31.5 17.5,31.5 16.5,31.5C 15.8333,30.1667 15.1667,30.1667 14.5,31.5C 13.8333,31.5 13.1667,31.5 12.5,31.5C 11.4324,30.5655 10.099,30.2322 8.5,30.5C 8.5,24.1667 8.5,17.8333 8.5,11.5C 8.69302,7.43378 8.35968,3.43378 7.5,-0.5 Z"/></g>
<g><path style="opacity:1" fill="#f3d763" d="M 3.5,-0.5 C 4.83333,-0.5 6.16667,-0.5 7.5,-0.5C 8.35968,3.43378 8.69302,7.43378 8.5,11.5C 6.5,11.5 4.5,11.5 2.5,11.5C 2.30698,7.43378 2.64032,3.43378 3.5,-0.5 Z"/></g>
<g><path style="opacity:1" fill="#e85c48" d="M 15.5,2.5 C 22.9344,2.19953 24.9344,5.3662 21.5,12C 12.9101,12.6119 10.9101,9.44523 15.5,2.5 Z"/></g>
<g><path style="opacity:1" fill="#fdf3f1" d="M 17.5,4.5 C 22.0205,5.97527 22.3538,7.97527 18.5,10.5C 17.5,9.5 16.5,8.5 15.5,7.5C 16.6119,6.73485 17.2786,5.73485 17.5,4.5 Z"/></g>
<g><path style="opacity:1" fill="#a1ab96" d="M 13.5,14.5 C 17.5546,14.1758 21.5546,14.5091 25.5,15.5C 23.5,15.8333 21.5,16.1667 19.5,16.5C 17.0478,16.4609 15.0478,15.7943 13.5,14.5 Z"/></g>
<g><path style="opacity:1" fill="#a3ad96" d="M 13.5,22.5 C 16.2469,22.1866 18.9135,22.52 21.5,23.5C 20.1667,23.8333 18.8333,24.1667 17.5,24.5C 15.6672,24.4146 14.3339,23.7479 13.5,22.5 Z"/></g>
<g><path style="opacity:1" fill="#80c781" d="M 23.5,20.5 C 24.2891,20.7828 24.9558,21.2828 25.5,22C 25.7408,23.5625 25.2408,25.0625 24,26.5C 23.5,26 23,25.5 22.5,25C 22.4698,23.5707 22.8031,22.0707 23.5,20.5 Z"/></g>
</svg>
