<?xml version="1.0" encoding="UTF-8"?>
<!DOCTYPE svg PUBLIC "-//W3C//DTD SVG 1.1//EN" "http://www.w3.org/Graphics/SVG/1.1/DTD/svg11.dtd">
<svg xmlns="http://www.w3.org/2000/svg" version="1.1" width="24px" height="24px" style="shape-rendering:geometricPrecision; text-rendering:geometricPrecision; image-rendering:optimizeQuality; fill-rule:evenodd; clip-rule:evenodd" xmlns:xlink="http://www.w3.org/1999/xlink">
<g><path style="opacity:0.997" fill="#95a2ab" d="M -0.5,-0.5 C 7.5,-0.5 15.5,-0.5 23.5,-0.5C 23.5,1.16667 23.5,2.83333 23.5,4.5C 15.5,4.5 7.5,4.5 -0.5,4.5C -0.5,2.83333 -0.5,1.16667 -0.5,-0.5 Z"/></g>
<g><path style="opacity:0.999" fill="#daf2f8" d="M -0.5,4.5 C 7.5,4.5 15.5,4.5 23.5,4.5C 23.5,10.8333 23.5,17.1667 23.5,23.5C 15.5,23.5 7.5,23.5 -0.5,23.5C -0.5,17.1667 -0.5,10.8333 -0.5,4.5 Z"/></g>
<g><path style="opacity:1" fill="#fb8289" d="M 1.5,5.5 C 2.83333,5.5 4.16667,5.5 5.5,5.5C 5.5,7.16667 5.5,8.83333 5.5,10.5C 4.16667,10.5 2.83333,10.5 1.5,10.5C 1.5,8.83333 1.5,7.16667 1.5,5.5 Z"/></g>
<g><path style="opacity:1" fill="#ca9de8" d="M 11.5,5.5 C 15.6759,4.83068 17.0093,6.33068 15.5,10C 14.2068,10.49 12.8734,10.6567 11.5,10.5C 11.5,8.83333 11.5,7.16667 11.5,5.5 Z"/></g>
<g><path style="opacity:1" fill="#b1e958" d="M 1.5,11.5 C 2.83333,11.5 4.16667,11.5 5.5,11.5C 5.5,13.1667 5.5,14.8333 5.5,16.5C 4.16667,16.5 2.83333,16.5 1.5,16.5C 1.5,14.8333 1.5,13.1667 1.5,11.5 Z"/></g>
<g><path style="opacity:1" fill="#61dbfb" d="M 11.5,11.5 C 13.1667,11.5 14.8333,11.5 16.5,11.5C 17.1667,15.5 15.5,17.1667 11.5,16.5C 11.5,14.8333 11.5,13.1667 11.5,11.5 Z"/></g>
<g><path style="opacity:1" fill="#ffd869" d="M 1.5,17.5 C 2.83333,17.5 4.16667,17.5 5.5,17.5C 5.5,18.8333 5.5,20.1667 5.5,21.5C 4.16667,21.5 2.83333,21.5 1.5,21.5C 1.5,20.1667 1.5,18.8333 1.5,17.5 Z"/></g>
<g><path style="opacity:1" fill="#fcaa5f" d="M 11.5,17.5 C 13.1667,17.5 14.8333,17.5 16.5,17.5C 16.5,18.8333 16.5,20.1667 16.5,21.5C 14.8333,21.5 13.1667,21.5 11.5,21.5C 11.5,20.1667 11.5,18.8333 11.5,17.5 Z"/></g>
</svg>
