<?xml version="1.0" encoding="UTF-8"?>
<!DOCTYPE svg PUBLIC "-//W3C//DTD SVG 1.1//EN" "http://www.w3.org/Graphics/SVG/1.1/DTD/svg11.dtd">
<svg xmlns="http://www.w3.org/2000/svg" version="1.1" width="32px" height="32px" style="shape-rendering:geometricPrecision; text-rendering:geometricPrecision; image-rendering:optimizeQuality; fill-rule:evenodd; clip-rule:evenodd" xmlns:xlink="http://www.w3.org/1999/xlink">
<g><path style="opacity:0.907" fill="#cac7ec" d="M 10.5,-0.5 C 11.5,-0.5 12.5,-0.5 13.5,-0.5C 13.9731,0.906316 14.9731,1.57298 16.5,1.5C 16.5,2.5 16.5,3.5 16.5,4.5C 13.5,4.5 10.5,4.5 7.5,4.5C 7.5,3.5 7.5,2.5 7.5,1.5C 9.02694,1.57298 10.0269,0.906316 10.5,-0.5 Z"/></g>
<g><path style="opacity:0.72" fill="#b3774e" d="M 7.5,1.5 C 7.5,2.5 7.5,3.5 7.5,4.5C 5.83333,4.5 4.16667,4.5 2.5,4.5C 2.5,12.1667 2.5,19.8333 2.5,27.5C 5.83333,27.5 9.16667,27.5 12.5,27.5C 12.5,28.5 12.5,29.5 12.5,30.5C 8.06853,30.7693 3.7352,30.436 -0.5,29.5C -0.5,20.5 -0.5,11.5 -0.5,2.5C 2.05449,1.61197 4.72116,1.27863 7.5,1.5 Z"/></g>
<g><path style="opacity:0.837" fill="#af7044" d="M 16.5,1.5 C 18.7925,1.24358 20.9592,1.57692 23,2.5C 23.498,5.48162 23.6646,8.48162 23.5,11.5C 23.5,11.8333 23.5,12.1667 23.5,12.5C 22.8333,12.1667 22.1667,11.8333 21.5,11.5C 21.5,9.16667 21.5,6.83333 21.5,4.5C 19.8333,4.5 18.1667,4.5 16.5,4.5C 16.5,3.5 16.5,2.5 16.5,1.5 Z"/></g>
<g><path style="opacity:1" fill="#f5f6fc" d="M 7.5,4.5 C 10.5,4.5 13.5,4.5 16.5,4.5C 18.1667,4.5 19.8333,4.5 21.5,4.5C 21.5,6.83333 21.5,9.16667 21.5,11.5C 21.1667,11.5 20.8333,11.5 20.5,11.5C 17.2155,11.2693 14.7155,12.6026 13,15.5C 12.5012,19.4862 12.3345,23.4862 12.5,27.5C 9.16667,27.5 5.83333,27.5 2.5,27.5C 2.5,19.8333 2.5,12.1667 2.5,4.5C 4.16667,4.5 5.83333,4.5 7.5,4.5 Z"/></g>
<g><path style="opacity:1" fill="#7fc298" d="M 8.5,7.5 C 9.5075,9.26799 8.84083,10.6013 6.5,11.5C 6.16667,11.1667 5.83333,10.8333 5.5,10.5C 6.77013,9.71237 7.77013,8.71237 8.5,7.5 Z"/></g>
<g><path style="opacity:1" fill="#79bf92" d="M 8.5,13.5 C 9.33449,15.2632 8.83449,16.9299 7,18.5C 6.5,18 6,17.5 5.5,17C 7.05575,16.2798 8.05575,15.1132 8.5,13.5 Z"/></g>
<g><path style="opacity:0.917" fill="#e9985a" d="M 20.5,11.5 C 19.701,14.4299 19.3677,17.4299 19.5,20.5C 21.1667,20.5 22.8333,20.5 24.5,20.5C 24.5987,17.7628 24.2653,15.0961 23.5,12.5C 23.5,12.1667 23.5,11.8333 23.5,11.5C 26.7882,11.0156 29.4548,12.0156 31.5,14.5C 31.5,20.1667 31.5,25.8333 31.5,31.5C 25.1667,31.5 18.8333,31.5 12.5,31.5C 12.5,31.1667 12.5,30.8333 12.5,30.5C 12.5,29.5 12.5,28.5 12.5,27.5C 12.3345,23.4862 12.5012,19.4862 13,15.5C 14.7155,12.6026 17.2155,11.2693 20.5,11.5 Z"/></g>
<g><path style="opacity:1" fill="#81403c" d="M 20.5,11.5 C 20.8333,11.5 21.1667,11.5 21.5,11.5C 22.1667,11.8333 22.8333,12.1667 23.5,12.5C 24.2653,15.0961 24.5987,17.7628 24.5,20.5C 22.8333,20.5 21.1667,20.5 19.5,20.5C 19.3677,17.4299 19.701,14.4299 20.5,11.5 Z"/></g>
<g><path style="opacity:1" fill="#71bc8c" d="M 8.5,20.5 C 9.55928,22.0699 9.05928,23.4032 7,24.5C 6.5,24 6,23.5 5.5,23C 6.94227,22.6232 7.94227,21.7899 8.5,20.5 Z"/></g>
<g><path style="opacity:1" fill="#fdf4ee" d="M 14.5,26.5 C 15.9778,26.238 17.3112,26.5713 18.5,27.5C 17.8333,27.8333 17.1667,28.1667 16.5,28.5C 15.2867,28.2528 14.62,27.5862 14.5,26.5 Z"/></g>
<g><path style="opacity:1" fill="#5d475b" d="M 27.5,25.5 C 28.3764,25.3691 29.0431,25.7025 29.5,26.5C 27.9929,30.3548 27.3262,30.0214 27.5,25.5 Z"/></g>
</svg>
