<?xml version="1.0" encoding="UTF-8"?>
<!DOCTYPE svg PUBLIC "-//W3C//DTD SVG 1.1//EN" "http://www.w3.org/Graphics/SVG/1.1/DTD/svg11.dtd">
<svg xmlns="http://www.w3.org/2000/svg" version="1.1" width="64px" height="64px" style="shape-rendering:geometricPrecision; text-rendering:geometricPrecision; image-rendering:optimizeQuality; fill-rule:evenodd; clip-rule:evenodd" xmlns:xlink="http://www.w3.org/1999/xlink">
<g><path style="opacity:0.999" fill="#6dcfaf" d="M 35.5,4.5 C 38.0667,4.85453 40.5667,5.5212 43,6.5C 43.7648,6.43007 44.2648,6.09674 44.5,5.5C 45.1667,5.83333 45.8333,6.16667 46.5,6.5C 48.5959,8.77995 50.5959,11.28 52.5,14C 49.9946,15.5952 47.9946,17.7619 46.5,20.5C 43.1384,20.8504 40.3051,22.1837 38,24.5C 37.0198,28.3005 35.5198,31.8005 33.5,35C 34.123,38.1607 36.123,39.6607 39.5,39.5C 39.6808,43.6954 41.3475,47.1954 44.5,50C 45.8333,50.6667 47.1667,50.6667 48.5,50C 50.0569,47.7045 51.7236,45.5378 53.5,43.5C 54.8333,44.1667 55.8333,45.1667 56.5,46.5C 51.6446,55.7639 43.9779,60.7639 33.5,61.5C 33.3962,58.9105 34.0629,56.5771 35.5,54.5C 34.723,52.5534 33.723,50.7201 32.5,49C 33.4589,46.8801 33.6256,44.7135 33,42.5C 30.7984,41.5984 28.6317,40.5984 26.5,39.5C 25.3422,36.8288 23.5089,34.8288 21,33.5C 17.8304,37.6278 16.8304,36.9611 18,31.5C 19.5541,29.0039 21.3874,26.8372 23.5,25C 23.2409,23.7387 22.5742,22.7387 21.5,22C 18.5547,21.861 16.2214,20.6943 14.5,18.5C 15.0256,16.7697 16.0256,15.4363 17.5,14.5C 18.7124,15.2299 19.7124,16.2299 20.5,17.5C 21.7678,18.4279 23.1011,18.5946 24.5,18C 27.0723,15.6872 28.739,12.8539 29.5,9.5C 30.4511,8.08134 30.7845,6.41467 30.5,4.5C 32.1667,4.5 33.8333,4.5 35.5,4.5 Z"/></g>
<g><path style="opacity:0.708" fill="#0a0c0e" d="M 18.5,-0.5 C 21.1667,-0.5 23.8333,-0.5 26.5,-0.5C 31.9888,1.08152 37.6555,2.58152 43.5,4C 44.056,4.38258 44.3893,4.88258 44.5,5.5C 44.2648,6.09674 43.7648,6.43007 43,6.5C 40.5667,5.5212 38.0667,4.85453 35.5,4.5C 33.7354,3.53862 31.7354,3.20528 29.5,3.5C 29.5,5.5 29.5,7.5 29.5,9.5C 28.739,12.8539 27.0723,15.6872 24.5,18C 23.1011,18.5946 21.7678,18.4279 20.5,17.5C 19.7124,16.2299 18.7124,15.2299 17.5,14.5C 16.6294,8.9704 14.4627,8.30373 11,12.5C 9.87846,15.8716 11.0451,17.8716 14.5,18.5C 16.2214,20.6943 18.5547,21.861 21.5,22C 22.5742,22.7387 23.2409,23.7387 23.5,25C 21.3874,26.8372 19.5541,29.0039 18,31.5C 16.8304,36.9611 17.8304,37.6278 21,33.5C 23.5089,34.8288 25.3422,36.8288 26.5,39.5C 28.6317,40.5984 30.7984,41.5984 33,42.5C 33.6256,44.7135 33.4589,46.8801 32.5,49C 33.723,50.7201 34.723,52.5534 35.5,54.5C 34.0629,56.5771 33.3962,58.9105 33.5,61.5C 43.9779,60.7639 51.6446,55.7639 56.5,46.5C 55.8333,45.1667 54.8333,44.1667 53.5,43.5C 51.7236,45.5378 50.0569,47.7045 48.5,50C 47.1667,50.6667 45.8333,50.6667 44.5,50C 41.3475,47.1954 39.6808,43.6954 39.5,39.5C 36.123,39.6607 34.123,38.1607 33.5,35C 35.5198,31.8005 37.0198,28.3005 38,24.5C 40.3051,22.1837 43.1384,20.8504 46.5,20.5C 47.9946,17.7619 49.9946,15.5952 52.5,14C 50.5959,11.28 48.5959,8.77995 46.5,6.5C 55.1482,10.3316 60.3149,16.9982 62,26.5C 64.1501,44.8896 56.6501,57.2229 39.5,63.5C 34.1667,63.5 28.8333,63.5 23.5,63.5C 20.976,62.2601 18.3093,61.0934 15.5,60C 13.3645,59.1237 12.0312,57.6237 11.5,55.5C 13.6854,55.7036 15.6854,56.3702 17.5,57.5C 21.5561,60.626 26.2228,61.9593 31.5,61.5C 31.3962,58.9105 32.0629,56.5771 33.5,54.5C 32.5,52.5 31.5,50.5 30.5,48.5C 32.2316,44.5923 30.8983,42.4257 26.5,42C 24.9544,39.7432 23.2877,37.5765 21.5,35.5C 19.8273,37.0863 17.8273,37.7529 15.5,37.5C 15.3512,34.3926 15.8512,31.3926 17,28.5C 18.9717,27.6948 20.4717,26.3615 21.5,24.5C 18.3611,23.4296 15.3611,22.0962 12.5,20.5C 10.8968,19.4036 9.39683,18.0703 8,16.5C 2.0199,25.2777 1.0199,34.611 5,44.5C 7.09056,47.7405 8.92389,51.0738 10.5,54.5C 8.98261,54.4894 7.81595,53.8228 7,52.5C -3.74761,34.5658 -1.08094,18.8992 15,5.5C 15.5637,3.11327 16.7304,1.11327 18.5,-0.5 Z"/></g>
<g><path style="opacity:1" fill="#d76b7a" d="M 20.5,1.5 C 28.8408,2.24075 30.6741,6.24075 26,13.5C 24.276,16.7303 22.276,17.0636 20,14.5C 16.5293,9.84538 16.6959,5.51204 20.5,1.5 Z"/></g>
<g><path style="opacity:1" fill="#181012" d="M 21.5,3.5 C 25.0681,3.75934 26.4015,5.75934 25.5,9.5C 19.5407,10.2222 18.2073,8.22223 21.5,3.5 Z"/></g>
<g><path style="opacity:1" fill="#c1c0cf" d="M 21.5,5.5 C 24.6741,5.95221 25.0075,6.95221 22.5,8.5C 21.6143,7.67504 21.281,6.67504 21.5,5.5 Z"/></g>
<g><path style="opacity:1" fill="#366757" d="M 35.5,4.5 C 33.8333,4.5 32.1667,4.5 30.5,4.5C 30.7845,6.41467 30.4511,8.08134 29.5,9.5C 29.5,7.5 29.5,5.5 29.5,3.5C 31.7354,3.20528 33.7354,3.53862 35.5,4.5 Z"/></g>
<g><path style="opacity:1" fill="#2eba8c" d="M 17.5,14.5 C 16.0256,15.4363 15.0256,16.7697 14.5,18.5C 11.0451,17.8716 9.87846,15.8716 11,12.5C 14.4627,8.30373 16.6294,8.9704 17.5,14.5 Z"/></g>
<g><path style="opacity:1" fill="#3656bc" d="M 12.5,20.5 C 7.30095,33.7972 8.96761,46.1306 17.5,57.5C 15.6854,56.3702 13.6854,55.7036 11.5,55.5C 10.8333,55.5 10.5,55.1667 10.5,54.5C 8.92389,51.0738 7.09056,47.7405 5,44.5C 1.0199,34.611 2.0199,25.2777 8,16.5C 9.39683,18.0703 10.8968,19.4036 12.5,20.5 Z"/></g>
<g><path style="opacity:1" fill="#5472c9" d="M 53.5,16.5 C 54.4959,16.4142 55.3292,16.7476 56,17.5C 61.1817,25.9733 61.6817,34.64 57.5,43.5C 54.0597,42.0794 52.5597,39.4128 53,35.5C 50.5881,32.208 47.4214,31.0413 43.5,32C 41.6449,33.8551 39.8116,35.6884 38,37.5C 36.5,37.3333 35.6667,36.5 35.5,35C 37.5246,31.7498 39.0246,28.2498 40,24.5C 42.0693,23.7362 44.236,23.2362 46.5,23C 48.0769,19.9197 50.4102,17.753 53.5,16.5 Z"/></g>
<g><path style="opacity:1" fill="#5574cd" d="M 12.5,20.5 C 15.3611,22.0962 18.3611,23.4296 21.5,24.5C 20.4717,26.3615 18.9717,27.6948 17,28.5C 15.8512,31.3926 15.3512,34.3926 15.5,37.5C 17.8273,37.7529 19.8273,37.0863 21.5,35.5C 23.2877,37.5765 24.9544,39.7432 26.5,42C 30.8983,42.4257 32.2316,44.5923 30.5,48.5C 31.5,50.5 32.5,52.5 33.5,54.5C 32.0629,56.5771 31.3962,58.9105 31.5,61.5C 26.2228,61.9593 21.5561,60.626 17.5,57.5C 8.96761,46.1306 7.30095,33.7972 12.5,20.5 Z"/></g>
<g><path style="opacity:1" fill="#ea7e8d" d="M 46.5,35.5 C 46.8417,34.6618 47.5084,34.3284 48.5,34.5C 50.7142,35.3915 51.7142,37.0582 51.5,39.5C 51.2859,42.2525 50.2859,44.5858 48.5,46.5C 47.0256,45.5637 46.0256,44.2303 45.5,42.5C 50.3057,40.7589 50.639,38.4256 46.5,35.5 Z"/></g>
<g><path style="opacity:1" fill="#cb5365" d="M 48.5,34.5 C 47.5084,34.3284 46.8417,34.6618 46.5,35.5C 44.2776,35.5587 43.2776,36.7253 43.5,39C 43.3866,40.6991 44.0532,41.8658 45.5,42.5C 46.0256,44.2303 47.0256,45.5637 48.5,46.5C 47.5729,48.4759 46.2395,48.8092 44.5,47.5C 39.9355,43.1549 39.6021,38.6549 43.5,34C 45.3869,33.2204 47.0536,33.3871 48.5,34.5 Z"/></g>
<g><path style="opacity:1" fill="#23181a" d="M 46.5,35.5 C 50.639,38.4256 50.3057,40.7589 45.5,42.5C 44.0532,41.8658 43.3866,40.6991 43.5,39C 43.2776,36.7253 44.2776,35.5587 46.5,35.5 Z"/></g>
<g><path style="opacity:1" fill="#c5c4d4" d="M 45.5,37.5 C 47.4646,37.9483 47.7979,38.9483 46.5,40.5C 45.6143,39.675 45.281,38.675 45.5,37.5 Z"/></g>
</svg>
