<?xml version="1.0" encoding="UTF-8"?>
<!DOCTYPE svg PUBLIC "-//W3C//DTD SVG 1.1//EN" "http://www.w3.org/Graphics/SVG/1.1/DTD/svg11.dtd">
<svg xmlns="http://www.w3.org/2000/svg" version="1.1" width="32px" height="32px" style="shape-rendering:geometricPrecision; text-rendering:geometricPrecision; image-rendering:optimizeQuality; fill-rule:evenodd; clip-rule:evenodd" xmlns:xlink="http://www.w3.org/1999/xlink">
<g><path style="opacity:1" fill="#e4e3e3" d="M 14.5,-0.5 C 14.8333,-0.5 15.1667,-0.5 15.5,-0.5C 17.1667,0.166667 18.8333,0.833333 20.5,1.5C 20.5,3.83333 20.5,6.16667 20.5,8.5C 17.1667,9.83333 13.8333,9.83333 10.5,8.5C 10.5,5.83333 10.5,3.16667 10.5,0.5C 12.099,0.767809 13.4324,0.434475 14.5,-0.5 Z"/></g>
<g><path style="opacity:1" fill="#7f474a" d="M 13.5,1.5 C 15.1667,1.5 16.8333,1.5 18.5,1.5C 18.9231,4.28823 17.9231,6.28823 15.5,7.5C 12.6095,6.16275 11.9428,4.16275 13.5,1.5 Z"/></g>
<g><path style="opacity:0.655" fill="#1b1b1b" d="M 9.5,-0.5 C 11.1667,-0.5 12.8333,-0.5 14.5,-0.5C 13.4324,0.434475 12.099,0.767809 10.5,0.5C 10.5,3.16667 10.5,5.83333 10.5,8.5C 10.5,9.83333 10.5,11.1667 10.5,12.5C 9.16667,12.5 7.83333,12.5 6.5,12.5C 6.5,12.1667 6.5,11.8333 6.5,11.5C 7.5,11.5 8.5,11.5 9.5,11.5C 9.5,9.5 9.5,7.5 9.5,5.5C 7.14316,5.33669 4.80982,5.50335 2.5,6C 1.59391,7.69946 1.26057,9.5328 1.5,11.5C 1.16667,11.5 0.833333,11.5 0.5,11.5C 0.5,9.16667 0.5,6.83333 0.5,4.5C 3.16667,4.5 5.83333,4.5 8.5,4.5C 8.36596,2.70848 8.69929,1.04181 9.5,-0.5 Z"/></g>
<g><path style="opacity:0.655" fill="#0f0f0f" d="M 15.5,-0.5 C 17.5,-0.5 19.5,-0.5 21.5,-0.5C 22.3007,1.04181 22.634,2.70848 22.5,4.5C 25.1667,4.5 27.8333,4.5 30.5,4.5C 30.7771,7.44753 30.4438,10.2809 29.5,13C 26.604,15.0223 23.9373,14.8556 21.5,12.5C 22.5,12.5 23.5,12.5 24.5,12.5C 26.1172,11.962 27.7839,11.6287 29.5,11.5C 30.2647,6.09359 27.9313,4.09359 22.5,5.5C 21.8333,4.16667 21.1667,2.83333 20.5,1.5C 18.8333,0.833333 17.1667,0.166667 15.5,-0.5 Z"/></g>
<g><path style="opacity:1" fill="#cecdcd" d="M 22.5,5.5 C 27.9313,4.09359 30.2647,6.09359 29.5,11.5C 27.7839,11.6287 26.1172,11.962 24.5,12.5C 24.5,12.1667 24.5,11.8333 24.5,11.5C 23.5,11.5 22.5,11.5 21.5,11.5C 21.3253,9.3792 21.6586,7.3792 22.5,5.5 Z"/></g>
<g><path style="opacity:1" fill="#cbcaca" d="M 6.5,11.5 C 6.5,11.8333 6.5,12.1667 6.5,12.5C 4.88277,11.962 3.2161,11.6287 1.5,11.5C 1.26057,9.5328 1.59391,7.69946 2.5,6C 4.80982,5.50335 7.14316,5.33669 9.5,5.5C 9.5,7.5 9.5,9.5 9.5,11.5C 8.5,11.5 7.5,11.5 6.5,11.5 Z"/></g>
<g><path style="opacity:1" fill="#623a3d" d="M 6.5,11.5 C 4.46765,10.9522 3.46765,9.61885 3.5,7.5C 8.16923,6.98972 9.16923,8.32305 6.5,11.5 Z"/></g>
<g><path style="opacity:1" fill="#5d393b" d="M 24.5,11.5 C 21.8308,8.32305 22.8308,6.98972 27.5,7.5C 27.5323,9.61885 26.5323,10.9522 24.5,11.5 Z"/></g>
<g><path style="opacity:0.973" fill="#363636" d="M 20.5,1.5 C 21.1667,2.83333 21.8333,4.16667 22.5,5.5C 21.6586,7.3792 21.3253,9.3792 21.5,11.5C 22.5,11.5 23.5,11.5 24.5,11.5C 24.5,11.8333 24.5,12.1667 24.5,12.5C 23.5,12.5 22.5,12.5 21.5,12.5C 21.1667,12.5 20.8333,12.5 20.5,12.5C 20.5,11.1667 20.5,9.83333 20.5,8.5C 20.5,6.16667 20.5,3.83333 20.5,1.5 Z"/></g>
<g><path style="opacity:0.416" fill="#110d0c" d="M 10.5,8.5 C 13.8333,9.83333 17.1667,9.83333 20.5,8.5C 20.5,9.83333 20.5,11.1667 20.5,12.5C 20.8333,13.8333 21.1667,15.1667 21.5,16.5C 21.5,17.1667 21.5,17.8333 21.5,18.5C 20.1667,19.5 18.8333,20.5 17.5,21.5C 18.2341,20.2921 18.5674,18.9587 18.5,17.5C 19.3379,14.6215 18.0046,12.9548 14.5,12.5C 11.7536,13.0963 10.9202,14.7629 12,17.5C 13.2917,16.2089 14.4583,16.2089 15.5,17.5C 14.391,17.5569 13.391,17.8902 12.5,18.5C 11.0221,17.5525 10.0221,16.2191 9.5,14.5C 8.32814,13.2947 6.99481,13.2947 5.5,14.5C 3.40243,14.0428 1.73576,13.0428 0.5,11.5C 0.833333,11.5 1.16667,11.5 1.5,11.5C 3.2161,11.6287 4.88277,11.962 6.5,12.5C 7.83333,12.5 9.16667,12.5 10.5,12.5C 10.5,11.1667 10.5,9.83333 10.5,8.5 Z M 11.5,9.5 C 13.9828,9.72998 14.4828,10.3966 13,11.5C 11.9701,11.1639 11.4701,10.4972 11.5,9.5 Z M 17.5,9.5 C 19.4646,9.94835 19.7979,10.9483 18.5,12.5C 16.4807,11.8671 16.1474,10.8671 17.5,9.5 Z"/></g>
<g><path style="opacity:1" fill="#765147" d="M 18.5,17.5 C 17.5,17.5 16.5,17.5 15.5,17.5C 14.4583,16.2089 13.2917,16.2089 12,17.5C 10.9202,14.7629 11.7536,13.0963 14.5,12.5C 18.0046,12.9548 19.3379,14.6215 18.5,17.5 Z"/></g>
<g><path style="opacity:0.282" fill="#0a0807" d="M 9.5,14.5 C 10.0221,16.2191 11.0221,17.5525 12.5,18.5C 12.6716,19.4916 12.3382,20.1583 11.5,20.5C 10.1883,21.709 9.18829,23.709 8.5,26.5C 7.50838,26.6716 6.84171,26.3382 6.5,25.5C 6.5,25.1667 6.5,24.8333 6.5,24.5C 8.13758,23.2954 8.47091,21.9621 7.5,20.5C 9.97323,20.0527 10.1399,19.0527 8,17.5C 7.66667,17.8333 7.33333,18.1667 7,18.5C 5.95101,16.8934 4.45101,16.2267 2.5,16.5C 4.35689,15.2463 6.35689,15.2463 8.5,16.5C 9.29755,16.0431 9.63088,15.3764 9.5,14.5 Z"/></g>
<g><path style="opacity:0.997" fill="#d9a069" d="M 15.5,17.5 C 16.5,17.5 17.5,17.5 18.5,17.5C 18.5674,18.9587 18.2341,20.2921 17.5,21.5C 17.5,22.1667 17.1667,22.5 16.5,22.5C 15.0413,22.5674 13.7079,22.2341 12.5,21.5C 11.8333,21.5 11.5,21.1667 11.5,20.5C 12.3382,20.1583 12.6716,19.4916 12.5,18.5C 13.391,17.8902 14.391,17.5569 15.5,17.5 Z"/></g>
<g><path style="opacity:0.302" fill="#11110e" d="M 21.5,18.5 C 21.5,19.1667 21.5,19.8333 21.5,20.5C 20.5386,22.2646 20.2053,24.2646 20.5,26.5C 18.5544,27.0347 17.5544,28.368 17.5,30.5C 17.1667,30.5 16.8333,30.5 16.5,30.5C 17.0965,28.602 17.0965,26.9354 16.5,25.5C 16.5,24.5 16.5,23.5 16.5,22.5C 17.1667,22.5 17.5,22.1667 17.5,21.5C 18.8333,20.5 20.1667,19.5 21.5,18.5 Z"/></g>
<g><path style="opacity:0.996" fill="#5b5558" d="M 2.5,16.5 C 4.45101,16.2267 5.95101,16.8934 7,18.5C 7.33333,18.1667 7.66667,17.8333 8,17.5C 10.1399,19.0527 9.97323,20.0527 7.5,20.5C 6.04125,20.4326 4.70792,20.7659 3.5,21.5C 2.76589,20.2921 2.43255,18.9587 2.5,17.5C 2.5,17.1667 2.5,16.8333 2.5,16.5 Z"/></g>
<g><path style="opacity:1" fill="#d9bb93" d="M 7.5,20.5 C 8.47091,21.9621 8.13758,23.2954 6.5,24.5C 4.5,24.5 3.5,23.5 3.5,21.5C 4.70792,20.7659 6.04125,20.4326 7.5,20.5 Z"/></g>
<g><path style="opacity:0.92" fill="#070504" d="M 22.5,16.5 C 25.0608,15.169 27.5608,15.5023 30,17.5C 30.1787,21.0252 30.6787,24.3586 31.5,27.5C 31.5,28.8333 31.5,30.1667 31.5,31.5C 31.1667,31.5 30.8333,31.5 30.5,31.5C 30.7373,30.209 30.404,29.209 29.5,28.5C 29.5,28.1667 29.5,27.8333 29.5,27.5C 29.5,27.1667 29.5,26.8333 29.5,26.5C 31.037,20.1976 28.7037,16.8642 22.5,16.5 Z"/></g>
<g><path style="opacity:0.988" fill="#2c2017" d="M 21.5,20.5 C 21.2011,22.604 21.5344,24.604 22.5,26.5C 23.2975,26.0431 23.6309,25.3764 23.5,24.5C 24.9587,24.5674 26.2921,24.2341 27.5,23.5C 27.2852,25.1788 27.9519,26.1788 29.5,26.5C 29.5,26.8333 29.5,27.1667 29.5,27.5C 28.0695,27.5792 26.7362,27.2458 25.5,26.5C 24.7492,27.376 24.2492,28.376 24,29.5C 22.9125,27.0684 22.4125,27.4017 22.5,30.5C 22.1667,30.5 21.8333,30.5 21.5,30.5C 21.5674,29.0413 21.2341,27.7079 20.5,26.5C 20.2053,24.2646 20.5386,22.2646 21.5,20.5 Z"/></g>
<g><path style="opacity:1" fill="#543a31" d="M 21.5,16.5 C 21.8333,16.5 22.1667,16.5 22.5,16.5C 28.7037,16.8642 31.037,20.1976 29.5,26.5C 27.9519,26.1788 27.2852,25.1788 27.5,23.5C 27.6567,22.1266 27.49,20.7932 27,19.5C 24.8282,20.5089 23.6615,22.1756 23.5,24.5C 23.6309,25.3764 23.2975,26.0431 22.5,26.5C 21.5344,24.604 21.2011,22.604 21.5,20.5C 21.5,19.8333 21.5,19.1667 21.5,18.5C 21.5,17.8333 21.5,17.1667 21.5,16.5 Z"/></g>
<g><path style="opacity:1" fill="#b98152" d="M 27.5,23.5 C 26.2921,24.2341 24.9587,24.5674 23.5,24.5C 23.6615,22.1756 24.8282,20.5089 27,19.5C 27.49,20.7932 27.6567,22.1266 27.5,23.5 Z"/></g>
<g><path style="opacity:0.442" fill="#302b23" d="M 12.5,21.5 C 13.7079,22.2341 15.0413,22.5674 16.5,22.5C 16.5,23.5 16.5,24.5 16.5,25.5C 15.4719,26.0736 14.4719,26.407 13.5,26.5C 14.2458,27.7362 14.5792,29.0695 14.5,30.5C 14.1667,30.5 13.8333,30.5 13.5,30.5C 12.0296,25.2428 10.6963,25.2428 9.5,30.5C 8.83333,30.5 8.5,30.1667 8.5,29.5C 7.44787,27.744 5.78121,27.0773 3.5,27.5C 3.97306,26.0937 4.97306,25.427 6.5,25.5C 6.84171,26.3382 7.50838,26.6716 8.5,26.5C 11.324,26.0107 12.6574,24.344 12.5,21.5 Z"/></g>
<g><path style="opacity:0.641" fill="#0e0e0d" d="M 2.5,17.5 C 2.43255,18.9587 2.76589,20.2921 3.5,21.5C 3.5,23.5 4.5,24.5 6.5,24.5C 6.5,24.8333 6.5,25.1667 6.5,25.5C 4.97306,25.427 3.97306,26.0937 3.5,27.5C 0.661828,29.3059 0.995161,30.3059 4.5,30.5C 4.5,30.8333 4.5,31.1667 4.5,31.5C 2.83333,31.5 1.16667,31.5 -0.5,31.5C -0.5,30.1667 -0.5,28.8333 -0.5,27.5C 0.973316,26.928 2.30665,26.0946 3.5,25C 1.50233,22.5608 1.169,20.0608 2.5,17.5 Z"/></g>
<g><path style="opacity:1" fill="#e7e6e6" d="M 16.5,25.5 C 17.0965,26.9354 17.0965,28.602 16.5,30.5C 15.8333,30.5 15.1667,30.5 14.5,30.5C 14.5792,29.0695 14.2458,27.7362 13.5,26.5C 14.4719,26.407 15.4719,26.0736 16.5,25.5 Z"/></g>
<g><path style="opacity:1" fill="#cacecf" d="M 3.5,27.5 C 5.78121,27.0773 7.44787,27.744 8.5,29.5C 7.29208,30.2341 5.95875,30.5674 4.5,30.5C 0.995161,30.3059 0.661828,29.3059 3.5,27.5 Z"/></g>
<g><path style="opacity:1" fill="#b2d88e" d="M 13.5,30.5 C 12.1667,30.5 10.8333,30.5 9.5,30.5C 10.6963,25.2428 12.0296,25.2428 13.5,30.5 Z"/></g>
<g><path style="opacity:1" fill="#b5d98d" d="M 20.5,26.5 C 21.2341,27.7079 21.5674,29.0413 21.5,30.5C 20.1667,30.5 18.8333,30.5 17.5,30.5C 17.5544,28.368 18.5544,27.0347 20.5,26.5 Z"/></g>
<g><path style="opacity:1" fill="#a07c42" d="M 29.5,27.5 C 29.5,27.8333 29.5,28.1667 29.5,28.5C 29.5299,29.4972 29.0299,30.1639 28,30.5C 26.3105,29.8505 24.4771,29.8505 22.5,30.5C 22.4125,27.4017 22.9125,27.0684 24,29.5C 24.2492,28.376 24.7492,27.376 25.5,26.5C 26.7362,27.2458 28.0695,27.5792 29.5,27.5 Z"/></g>
<g><path style="opacity:0.982" fill="#090805" d="M 29.5,28.5 C 30.404,29.209 30.7373,30.209 30.5,31.5C 21.8333,31.5 13.1667,31.5 4.5,31.5C 4.5,31.1667 4.5,30.8333 4.5,30.5C 5.95875,30.5674 7.29208,30.2341 8.5,29.5C 8.5,30.1667 8.83333,30.5 9.5,30.5C 10.8333,30.5 12.1667,30.5 13.5,30.5C 13.8333,30.5 14.1667,30.5 14.5,30.5C 15.1667,30.5 15.8333,30.5 16.5,30.5C 16.8333,30.5 17.1667,30.5 17.5,30.5C 18.8333,30.5 20.1667,30.5 21.5,30.5C 21.8333,30.5 22.1667,30.5 22.5,30.5C 24.4771,29.8505 26.3105,29.8505 28,30.5C 29.0299,30.1639 29.5299,29.4972 29.5,28.5 Z"/></g>
</svg>
