<?xml version="1.0" encoding="UTF-8"?>
<!DOCTYPE svg PUBLIC "-//W3C//DTD SVG 1.1//EN" "http://www.w3.org/Graphics/SVG/1.1/DTD/svg11.dtd">
<svg xmlns="http://www.w3.org/2000/svg" version="1.1" width="64px" height="64px" style="shape-rendering:geometricPrecision; text-rendering:geometricPrecision; image-rendering:optimizeQuality; fill-rule:evenodd; clip-rule:evenodd" xmlns:xlink="http://www.w3.org/1999/xlink">
<g><path style="opacity:1" fill="#56595f" d="M 20.5,-0.5 C 27.8333,-0.5 35.1667,-0.5 42.5,-0.5C 44.0745,1.54747 45.0745,3.88081 45.5,6.5C 43.8333,6.5 42.1667,6.5 40.5,6.5C 40.5858,5.5041 40.2524,4.67076 39.5,4C 34.1667,3.33333 28.8333,3.33333 23.5,4C 22.7476,4.67076 22.4142,5.5041 22.5,6.5C 20.8333,6.5 19.1667,6.5 17.5,6.5C 17.9255,3.88081 18.9255,1.54747 20.5,-0.5 Z M 40.5,6.5 C 37.5,6.5 34.5,6.5 31.5,6.5C 28.5,6.5 25.5,6.5 22.5,6.5C 22.4142,5.5041 22.7476,4.67076 23.5,4C 28.8333,3.33333 34.1667,3.33333 39.5,4C 40.2524,4.67076 40.5858,5.5041 40.5,6.5 Z"/></g>
<g><path style="opacity:0.958" fill="#7f838c" d="M 17.5,6.5 C 19.1667,6.5 20.8333,6.5 22.5,6.5C 25.5,6.5 28.5,6.5 31.5,6.5C 31.5,10.1667 31.5,13.8333 31.5,17.5C 40.1667,17.5 48.8333,17.5 57.5,17.5C 57.5,18.1667 57.1667,18.5 56.5,18.5C 48.1667,18.5 39.8333,18.5 31.5,18.5C 22.7794,18.7754 14.1127,18.4421 5.5,17.5C 1.59147,14.2821 1.59147,10.9487 5.5,7.5C 9.42949,6.56716 13.4295,6.23383 17.5,6.5 Z"/></g>
<g><path style="opacity:0.999" fill="#757982" d="M 31.5,6.5 C 34.5,6.5 37.5,6.5 40.5,6.5C 42.1667,6.5 43.8333,6.5 45.5,6.5C 49.5705,6.23383 53.5705,6.56716 57.5,7.5C 61.4085,10.9487 61.4085,14.2821 57.5,17.5C 48.8333,17.5 40.1667,17.5 31.5,17.5C 31.5,13.8333 31.5,10.1667 31.5,6.5 Z"/></g>
<g><path style="opacity:0.979" fill="#c3c9d8" d="M 5.5,17.5 C 14.1127,18.4421 22.7794,18.7754 31.5,18.5C 31.5,19.8333 31.5,21.1667 31.5,22.5C 30.1714,27.6238 29.5048,33.1238 29.5,39C 29.5048,44.8762 30.1714,50.3762 31.5,55.5C 31.5,58.1667 31.5,60.8333 31.5,63.5C 25.1667,63.5 18.8333,63.5 12.5,63.5C 11.0693,61.8113 10.2359,59.8113 10,57.5C 9.26648,44.0049 7.76648,30.6716 5.5,17.5 Z"/></g>
<g><path style="opacity:1" fill="#b7becb" d="M 31.5,18.5 C 39.8333,18.5 48.1667,18.5 56.5,18.5C 55.1691,31.4691 54.0025,44.4691 53,57.5C 52.7641,59.8113 51.9307,61.8113 50.5,63.5C 44.1667,63.5 37.8333,63.5 31.5,63.5C 31.5,60.8333 31.5,58.1667 31.5,55.5C 32.8286,50.3762 33.4952,44.8762 33.5,39C 33.4952,33.1238 32.8286,27.6238 31.5,22.5C 31.5,21.1667 31.5,19.8333 31.5,18.5 Z"/></g>
<g><path style="opacity:1" fill="#a3a9b5" d="M 18.5,22.5 C 19.8221,22.33 20.9887,22.6634 22,23.5C 23.0426,34.1428 23.5426,44.8094 23.5,55.5C 22.1779,55.67 21.0113,55.3366 20,54.5C 19.6462,43.8199 19.1462,33.1533 18.5,22.5 Z"/></g>
<g><path style="opacity:1" fill="#989da8" d="M 41.5,22.5 C 42.5,22.5 43.5,22.5 44.5,22.5C 43.6564,33.4874 42.9897,44.4874 42.5,55.5C 41.5,55.5 40.5,55.5 39.5,55.5C 39.3297,44.3948 39.9963,33.3948 41.5,22.5 Z"/></g>
<g><path style="opacity:1" fill="#9ca1ad" d="M 31.5,22.5 C 32.8286,27.6238 33.4952,33.1238 33.5,39C 33.4952,44.8762 32.8286,50.3762 31.5,55.5C 30.1714,50.3762 29.5048,44.8762 29.5,39C 29.5048,33.1238 30.1714,27.6238 31.5,22.5 Z"/></g>
</svg>
