<?xml version="1.0" encoding="UTF-8"?>
<!DOCTYPE svg PUBLIC "-//W3C//DTD SVG 1.1//EN" "http://www.w3.org/Graphics/SVG/1.1/DTD/svg11.dtd">
<svg xmlns="http://www.w3.org/2000/svg" version="1.1" width="32px" height="32px" style="shape-rendering:geometricPrecision; text-rendering:geometricPrecision; image-rendering:optimizeQuality; fill-rule:evenodd; clip-rule:evenodd" xmlns:xlink="http://www.w3.org/1999/xlink">
<g><path style="opacity:0.506" fill="#85d246" d="M 18.5,-0.5 C 18.8333,-0.5 19.1667,-0.5 19.5,-0.5C 19.3147,0.170143 18.9813,0.170143 18.5,-0.5 Z"/></g>
<g><path style="opacity:0.452" fill="#6fd6f9" d="M 19.5,3.5 C 20.3676,1.37541 21.3676,1.20874 22.5,3C 21.8235,4.68327 20.8235,4.84993 19.5,3.5 Z"/></g>
<g><path style="opacity:1" fill="#b49782" d="M 12.5,7.5 C 13.8333,7.5 15.1667,7.5 16.5,7.5C 16.6633,9.85684 16.4966,12.1902 16,14.5C 14.4443,16.6348 12.6109,16.9681 10.5,15.5C 8.72017,14.0101 8.05351,12.0101 8.5,9.5C 10.3797,9.77089 11.713,9.10422 12.5,7.5 Z"/></g>
<g><path style="opacity:0.965" fill="#252222" d="M 14.5,2.5 C 10.1486,1.53296 7.81526,3.19963 7.5,7.5C 9.16667,7.5 10.8333,7.5 12.5,7.5C 11.713,9.10422 10.3797,9.77089 8.5,9.5C 8.05351,12.0101 8.72017,14.0101 10.5,15.5C 10.5,16.1667 10.5,16.8333 10.5,17.5C 10.5,17.8333 10.5,18.1667 10.5,18.5C 9.77842,18.9175 9.27842,19.5842 9,20.5C 4.45011,19.5548 2.61678,21.5548 3.5,26.5C 4.79105,26.2627 5.79105,26.596 6.5,27.5C 5.5,27.5 4.5,27.5 3.5,27.5C 3.16667,27.5 2.83333,27.5 2.5,27.5C 2.27863,24.7212 2.61197,22.0545 3.5,19.5C 3.83333,19.5 4.16667,19.5 4.5,19.5C 6.30315,18.9536 7.96982,18.1203 9.5,17C 8.9558,16.2828 8.28913,15.7828 7.5,15.5C 7.5,15.1667 7.5,14.8333 7.5,14.5C 5.03303,11.0195 4.86636,7.35288 7,3.5C 9.35688,1.35419 11.8569,1.02085 14.5,2.5 Z"/></g>
<g><path style="opacity:0.973" fill="#544d4a" d="M 14.5,2.5 C 15.531,3.24853 16.6976,3.9152 18,4.5C 19.4809,7.81538 19.3142,10.8154 17.5,13.5C 17.2671,15.0618 16.6005,16.3951 15.5,17.5C 15.5,18.1667 15.1667,18.5 14.5,18.5C 13.4324,17.5655 12.099,17.2322 10.5,17.5C 10.5,16.8333 10.5,16.1667 10.5,15.5C 12.6109,16.9681 14.4443,16.6348 16,14.5C 16.4966,12.1902 16.6633,9.85684 16.5,7.5C 15.1667,7.5 13.8333,7.5 12.5,7.5C 10.8333,7.5 9.16667,7.5 7.5,7.5C 7.81526,3.19963 10.1486,1.53296 14.5,2.5 Z"/></g>
<g><path style="opacity:0.059" fill="#110f0e" d="M 14.5,2.5 C 16.2915,2.36596 17.9582,2.69929 19.5,3.5C 19.7038,6.51763 20.0371,9.51763 20.5,12.5C 19.8333,12.5 19.5,12.8333 19.5,13.5C 18.8333,13.5 18.1667,13.5 17.5,13.5C 19.3142,10.8154 19.4809,7.81538 18,4.5C 16.6976,3.9152 15.531,3.24853 14.5,2.5 Z"/></g>
<g><path style="opacity:0.192" fill="#fb657e" d="M 20.5,12.5 C 21.0431,12.56 21.3764,12.8933 21.5,13.5C 20.7435,14.7733 20.0768,14.7733 19.5,13.5C 19.5,12.8333 19.8333,12.5 20.5,12.5 Z"/></g>
<g><path style="opacity:0.68" fill="#f6c94d" d="M 7.5,14.5 C 7.5,14.8333 7.5,15.1667 7.5,15.5C 7.05269,17.9732 6.05269,18.1399 4.5,16C 5.24382,14.9614 6.24382,14.4614 7.5,14.5 Z"/></g>
<g><path style="opacity:1" fill="#e8c2a8" d="M 10.5,18.5 C 10.5,18.1667 10.5,17.8333 10.5,17.5C 12.099,17.2322 13.4324,17.5655 14.5,18.5C 13.8333,18.5 13.5,18.8333 13.5,19.5C 12.8333,19.5 12.1667,19.5 11.5,19.5C 11.5,18.8333 11.1667,18.5 10.5,18.5 Z"/></g>
<g><path style="opacity:0.167" fill="#fd677c" d="M 4.5,19.5 C 4.16667,19.5 3.83333,19.5 3.5,19.5C 2.22671,18.9232 2.22671,18.2565 3.5,17.5C 4.29755,17.9569 4.63088,18.6236 4.5,19.5 Z"/></g>
<g><path style="opacity:1" fill="#3a67ab" d="M 10.5,18.5 C 11.1667,18.5 11.5,18.8333 11.5,19.5C 12.7335,22.5352 12.7335,25.5352 11.5,28.5C 10.9032,29.1386 10.0698,29.472 9,29.5C 7.62439,29.3158 6.79106,28.6491 6.5,27.5C 5.79105,26.596 4.79105,26.2627 3.5,26.5C 2.61678,21.5548 4.45011,19.5548 9,20.5C 9.27842,19.5842 9.77842,18.9175 10.5,18.5 Z"/></g>
<g><path style="opacity:0.867" fill="#383b3f" d="M 15.5,17.5 C 19.4338,18.3597 23.4338,18.693 27.5,18.5C 27.3718,22.8814 27.7051,27.2147 28.5,31.5C 19.8333,31.5 11.1667,31.5 2.5,31.5C 2.5,30.1667 2.5,28.8333 2.5,27.5C 2.83333,27.5 3.16667,27.5 3.5,27.5C 3.5,28.5 3.5,29.5 3.5,30.5C 6.57186,30.8174 9.57186,30.4841 12.5,29.5C 12.3764,28.8933 12.0431,28.56 11.5,28.5C 12.7335,25.5352 12.7335,22.5352 11.5,19.5C 12.1667,19.5 12.8333,19.5 13.5,19.5C 13.5,18.8333 13.8333,18.5 14.5,18.5C 15.1667,18.5 15.5,18.1667 15.5,17.5 Z"/></g>
<g><path style="opacity:1" fill="#e6c0a7" d="M 3.5,27.5 C 4.5,27.5 5.5,27.5 6.5,27.5C 6.79106,28.6491 7.62439,29.3158 9,29.5C 10.0698,29.472 10.9032,29.1386 11.5,28.5C 12.0431,28.56 12.3764,28.8933 12.5,29.5C 9.57186,30.4841 6.57186,30.8174 3.5,30.5C 3.5,29.5 3.5,28.5 3.5,27.5 Z"/></g>
<g><path style="opacity:1" fill="#e2e8f0" d="M 13.5,19.5 C 17.8333,19.5 22.1667,19.5 26.5,19.5C 26.5,22.8333 26.5,26.1667 26.5,29.5C 22.1667,29.5 17.8333,29.5 13.5,29.5C 13.5,26.1667 13.5,22.8333 13.5,19.5 Z"/></g>
<g><path style="opacity:1" fill="#507e90" d="M 18.5,21.5 C 23.1585,21.0146 24.4919,22.848 22.5,27C 17.0014,27.8063 15.668,25.973 18.5,21.5 Z"/></g>
</svg>
