<?xml version="1.0" encoding="UTF-8"?>
<!DOCTYPE svg PUBLIC "-//W3C//DTD SVG 1.1//EN" "http://www.w3.org/Graphics/SVG/1.1/DTD/svg11.dtd">
<svg xmlns="http://www.w3.org/2000/svg" version="1.1" width="64px" height="64px" style="shape-rendering:geometricPrecision; text-rendering:geometricPrecision; image-rendering:optimizeQuality; fill-rule:evenodd; clip-rule:evenodd" xmlns:xlink="http://www.w3.org/1999/xlink">
<g><path style="opacity:0.995" fill="#0476de" d="M 9.5,-0.5 C 22.1667,-0.5 34.8333,-0.5 47.5,-0.5C 52.4796,1.64848 55.9796,5.31514 58,10.5C 58.1667,17.3333 58.3333,24.1667 58.5,31C 58.6174,38.9069 58.1174,46.7403 57,54.5C 54.8971,59.2783 51.3971,62.2783 46.5,63.5C 33.8333,63.5 21.1667,63.5 8.5,63.5C 7.01307,62.1964 5.3464,61.0298 3.5,60C 2.30342,57.9847 0.970083,56.1513 -0.5,54.5C -0.5,39.1667 -0.5,23.8333 -0.5,8.5C 2.23454,4.76189 5.56787,1.76189 9.5,-0.5 Z"/></g>
<g><path style="opacity:1" fill="#005fb2" d="M 47.5,-0.5 C 49.5,-0.5 51.5,-0.5 53.5,-0.5C 57.4321,1.76189 60.7655,4.76189 63.5,8.5C 63.5,23.8333 63.5,39.1667 63.5,54.5C 62.1964,55.9869 61.0298,57.6536 60,59.5C 57.9847,60.6966 56.1513,62.0299 54.5,63.5C 51.8333,63.5 49.1667,63.5 46.5,63.5C 51.3971,62.2783 54.8971,59.2783 57,54.5C 58.1174,46.7403 58.6174,38.9069 58.5,31C 58.3333,24.1667 58.1667,17.3333 58,10.5C 55.9796,5.31514 52.4796,1.64848 47.5,-0.5 Z"/></g>
<g><path style="opacity:1" fill="#f0f3f6" d="M 28.5,7.5 C 35.8247,6.99244 38.6581,10.3258 37,17.5C 31.0003,23.2595 26.8337,22.0929 24.5,14C 24.7225,11.0379 26.0558,8.8712 28.5,7.5 Z"/></g>
<g><path style="opacity:1" fill="#e4e5e6" d="M 31.5,25.5 C 33.2646,24.5386 35.2646,24.2053 37.5,24.5C 37.169,32.5277 37.5023,40.5277 38.5,48.5C 41.3133,49.6169 41.98,51.4503 40.5,54C 38.8659,54.4935 37.1992,54.6602 35.5,54.5C 37.2838,51.1919 36.2838,49.5253 32.5,49.5C 32.8257,41.3159 32.4924,33.3159 31.5,25.5 Z"/></g>
<g><path style="opacity:1" fill="#fbfcfe" d="M 31.5,25.5 C 32.4924,33.3159 32.8257,41.3159 32.5,49.5C 36.2838,49.5253 37.2838,51.1919 35.5,54.5C 31.1667,54.5 26.8333,54.5 22.5,54.5C 22.2155,52.5853 22.5489,50.9187 23.5,49.5C 24.5,49.5 25.5,49.5 26.5,49.5C 26.5,43.5 26.5,37.5 26.5,31.5C 25.5,31.5 24.5,31.5 23.5,31.5C 21.3531,30.0679 21.0198,28.2345 22.5,26C 25.4816,25.502 28.4816,25.3354 31.5,25.5 Z"/></g>
<g><path style="opacity:1" fill="#489be7" d="M 23.5,31.5 C 24.5,31.5 25.5,31.5 26.5,31.5C 26.5,37.5 26.5,43.5 26.5,49.5C 25.5,49.5 24.5,49.5 23.5,49.5C 26.1667,43.5 26.1667,37.5 23.5,31.5 Z"/></g>
</svg>
