<?xml version="1.0" encoding="UTF-8"?>
<!DOCTYPE svg PUBLIC "-//W3C//DTD SVG 1.1//EN" "http://www.w3.org/Graphics/SVG/1.1/DTD/svg11.dtd">
<svg xmlns="http://www.w3.org/2000/svg" version="1.1" width="24px" height="24px" style="shape-rendering:geometricPrecision; text-rendering:geometricPrecision; image-rendering:optimizeQuality; fill-rule:evenodd; clip-rule:evenodd" xmlns:xlink="http://www.w3.org/1999/xlink">
<g><path style="opacity:1" fill="#ebc67a" d="M 3.5,0.5 C 9.16667,0.5 14.8333,0.5 20.5,0.5C 20.5,7.83333 20.5,15.1667 20.5,22.5C 15.8333,22.5 11.1667,22.5 6.5,22.5C 5.16667,21.8333 4.16667,20.8333 3.5,19.5C 4.93047,19.4208 6.26381,19.7542 7.5,20.5C 8.45189,18.9547 8.78522,17.288 8.5,15.5C 8.5,14.5 8.5,13.5 8.5,12.5C 7.5,12.5 6.5,12.5 5.5,12.5C 5.5,13.5 5.5,14.5 5.5,15.5C 5.5,16.5 5.5,17.5 5.5,18.5C 4.5,18.5 3.5,18.5 2.5,18.5C 2.17711,12.31 2.51045,6.31004 3.5,0.5 Z"/></g>
<g><path style="opacity:0.467" fill="#2b343c" d="M 1.5,-0.5 C 2.16667,-0.5 2.83333,-0.5 3.5,-0.5C 3.5,-0.166667 3.5,0.166667 3.5,0.5C 2.51045,6.31004 2.17711,12.31 2.5,18.5C 2.5,19.1667 2.83333,19.5 3.5,19.5C 4.16667,20.8333 5.16667,21.8333 6.5,22.5C 6.5,22.8333 6.5,23.1667 6.5,23.5C 5.83333,23.5 5.16667,23.5 4.5,23.5C 3.87833,22.3734 3.04499,21.3734 2,20.5C 1.50038,13.5079 1.33371,6.50793 1.5,-0.5 Z"/></g>
<g><path style="opacity:0.467" fill="#4b4f4c" d="M 3.5,0.5 C 3.5,0.166667 3.5,-0.166667 3.5,-0.5C 9.5,-0.5 15.5,-0.5 21.5,-0.5C 21.5,7.5 21.5,15.5 21.5,23.5C 16.5,23.5 11.5,23.5 6.5,23.5C 6.5,23.1667 6.5,22.8333 6.5,22.5C 11.1667,22.5 15.8333,22.5 20.5,22.5C 20.5,15.1667 20.5,7.83333 20.5,0.5C 14.8333,0.5 9.16667,0.5 3.5,0.5 Z"/></g>
<g><path style="opacity:1" fill="#9a8a64" d="M 6.5,2.5 C 9.5461,2.91388 12.5461,2.91388 15.5,2.5C 16.8333,3.83333 16.8333,5.16667 15.5,6.5C 12.6169,6.12772 9.61688,6.12772 6.5,6.5C 6.5,5.16667 6.5,3.83333 6.5,2.5 Z"/></g>
<g><path style="opacity:1" fill="#af9369" d="M 5.5,7.5 C 9.47236,8.10823 13.4724,8.60823 17.5,9C 13.835,11.1668 9.83496,12.0002 5.5,11.5C 5.5,10.1667 5.5,8.83333 5.5,7.5 Z"/></g>
<g><path style="opacity:1" fill="#6498aa" d="M 8.5,15.5 C 7.5,15.5 6.5,15.5 5.5,15.5C 5.5,14.5 5.5,13.5 5.5,12.5C 6.5,12.5 7.5,12.5 8.5,12.5C 8.5,13.5 8.5,14.5 8.5,15.5 Z"/></g>
<g><path style="opacity:1" fill="#8f735f" d="M 5.5,15.5 C 6.5,15.5 7.5,15.5 8.5,15.5C 8.78522,17.288 8.45189,18.9547 7.5,20.5C 6.26381,19.7542 4.93047,19.4208 3.5,19.5C 2.83333,19.5 2.5,19.1667 2.5,18.5C 3.5,18.5 4.5,18.5 5.5,18.5C 5.5,17.5 5.5,16.5 5.5,15.5 Z"/></g>
</svg>
