<?xml version="1.0" encoding="UTF-8"?>
<!DOCTYPE svg PUBLIC "-//W3C//DTD SVG 1.1//EN" "http://www.w3.org/Graphics/SVG/1.1/DTD/svg11.dtd">
<svg xmlns="http://www.w3.org/2000/svg" version="1.1" width="32px" height="32px" style="shape-rendering:geometricPrecision; text-rendering:geometricPrecision; image-rendering:optimizeQuality; fill-rule:evenodd; clip-rule:evenodd" xmlns:xlink="http://www.w3.org/1999/xlink">
<g><path style="opacity:0.952" fill="#e04f5f" d="M 9.5,-0.5 C 13.5,-0.5 17.5,-0.5 21.5,-0.5C 25.8333,1.83333 29.1667,5.16667 31.5,9.5C 31.5,13.5 31.5,17.5 31.5,21.5C 29.1667,25.8333 25.8333,29.1667 21.5,31.5C 17.5,31.5 13.5,31.5 9.5,31.5C 5.16667,29.1667 1.83333,25.8333 -0.5,21.5C -0.5,17.5 -0.5,13.5 -0.5,9.5C 1.83333,5.16667 5.16667,1.83333 9.5,-0.5 Z"/></g>
<g><path style="opacity:1" fill="#fef7f8" d="M 8.5,6.5 C 10.1993,6.52709 11.5326,7.19376 12.5,8.5C 13.7206,9.02832 14.8873,9.69499 16,10.5C 16.4986,14.1516 16.6653,17.8183 16.5,21.5C 17.8333,21.5 19.1667,21.5 20.5,21.5C 20.8333,16.1667 21.1667,16.1667 21.5,21.5C 19.0599,22.8986 16.7266,24.5653 14.5,26.5C 12.0824,25.5428 9.91569,24.2095 8,22.5C 7.18259,16.9836 7.34926,11.6503 8.5,6.5 Z"/></g>
<g><path style="opacity:1" fill="#f8d1d5" d="M 8.5,6.5 C 12.3112,5.35472 16.3112,5.18806 20.5,6C 22.1554,7.44425 22.822,9.27759 22.5,11.5C 20.8235,10.8166 20.1568,9.48324 20.5,7.5C 17.6146,7.1936 14.9479,7.52693 12.5,8.5C 11.5326,7.19376 10.1993,6.52709 8.5,6.5 Z"/></g>
<g><path style="opacity:1" fill="#e25967" d="M 12.5,8.5 C 14.9479,7.52693 17.6146,7.1936 20.5,7.5C 20.1568,9.48324 20.8235,10.8166 22.5,11.5C 21.3218,12.9986 19.6551,13.9986 17.5,14.5C 19.6551,15.0014 21.3218,16.0014 22.5,17.5C 22.7678,19.099 22.4345,20.4324 21.5,21.5C 21.1667,16.1667 20.8333,16.1667 20.5,21.5C 19.1667,21.5 17.8333,21.5 16.5,21.5C 16.6653,17.8183 16.4986,14.1516 16,10.5C 14.8873,9.69499 13.7206,9.02832 12.5,8.5 Z"/></g>
<g><path style="opacity:1" fill="#f8d9dc" d="M 22.5,11.5 C 26.5,13.5 26.5,15.5 22.5,17.5C 21.3218,16.0014 19.6551,15.0014 17.5,14.5C 19.6551,13.9986 21.3218,12.9986 22.5,11.5 Z"/></g>
</svg>
