<?xml version="1.0" encoding="UTF-8"?>
<!DOCTYPE svg PUBLIC "-//W3C//DTD SVG 1.1//EN" "http://www.w3.org/Graphics/SVG/1.1/DTD/svg11.dtd">
<svg xmlns="http://www.w3.org/2000/svg" version="1.1" width="32px" height="32px" style="shape-rendering:geometricPrecision; text-rendering:geometricPrecision; image-rendering:optimizeQuality; fill-rule:evenodd; clip-rule:evenodd" xmlns:xlink="http://www.w3.org/1999/xlink">
<g><path style="opacity:0.774" fill="#636ada" d="M 15.5,-0.5 C 16.8333,-0.5 18.1667,-0.5 19.5,-0.5C 22.961,1.41529 24.6277,4.41529 24.5,8.5C 23.8333,8.5 23.1667,8.5 22.5,8.5C 21.8333,4.5 19.5,2.16667 15.5,1.5C 15.5,0.833333 15.5,0.166667 15.5,-0.5 Z"/></g>
<g><path style="opacity:0.779" fill="#3d9afa" d="M 11.5,-0.5 C 12.8333,-0.5 14.1667,-0.5 15.5,-0.5C 15.5,0.166667 15.5,0.833333 15.5,1.5C 11.5,2.16667 9.16667,4.5 8.5,8.5C 7.83333,8.5 7.16667,8.5 6.5,8.5C 6.37234,4.41529 8.039,1.41529 11.5,-0.5 Z"/></g>
<g><path style="opacity:1" fill="#645f82" d="M 15.5,1.5 C 19.5,2.16667 21.8333,4.5 22.5,8.5C 22.1667,8.5 21.8333,8.5 21.5,8.5C 21.3893,7.88258 21.056,7.38258 20.5,7C 16.5081,6.03862 12.8415,6.53862 9.5,8.5C 9.16667,8.5 8.83333,8.5 8.5,8.5C 9.16667,4.5 11.5,2.16667 15.5,1.5 Z"/></g>
<g><path style="opacity:0.978" fill="#fdcba4" d="M 21.5,8.5 C 21.5,10.5 21.5,12.5 21.5,14.5C 20.8333,16.8333 20.1667,19.1667 19.5,21.5C 18.1851,22.4756 16.8518,23.4756 15.5,24.5C 14.1482,23.4756 12.8149,22.4756 11.5,21.5C 11.6085,19.4862 10.9418,17.8195 9.5,16.5C 16.1667,15.8333 16.1667,15.1667 9.5,14.5C 9.5,12.5 9.5,10.5 9.5,8.5C 12.8415,6.53862 16.5081,6.03862 20.5,7C 21.056,7.38258 21.3893,7.88258 21.5,8.5 Z"/></g>
<g><path style="opacity:0.84" fill="#f3c50c" d="M 6.5,8.5 C 7.16667,8.5 7.83333,8.5 8.5,8.5C 8.83333,8.5 9.16667,8.5 9.5,8.5C 9.5,10.5 9.5,12.5 9.5,14.5C 8.17793,14.67 7.01127,14.3366 6,13.5C 5.22039,11.6131 5.38705,9.94639 6.5,8.5 Z"/></g>
<g><path style="opacity:0.877" fill="#f5a70a" d="M 21.5,8.5 C 21.8333,8.5 22.1667,8.5 22.5,8.5C 23.1667,8.5 23.8333,8.5 24.5,8.5C 25.6129,9.94639 25.7796,11.6131 25,13.5C 23.9887,14.3366 22.8221,14.67 21.5,14.5C 21.5,12.5 21.5,10.5 21.5,8.5 Z"/></g>
<g><path style="opacity:1" fill="#726e8d" d="M 9.5,14.5 C 16.1667,15.1667 16.1667,15.8333 9.5,16.5C 9.5,15.8333 9.5,15.1667 9.5,14.5 Z"/></g>
<g><path style="opacity:0.961" fill="#f5f6f9" d="M 8.5,21.5 C 9.06946,24.3345 10.7361,26.0012 13.5,26.5C 15.256,27.5521 15.9227,29.2188 15.5,31.5C 10.1667,31.5 4.83333,31.5 -0.5,31.5C -0.5,30.1667 -0.5,28.8333 -0.5,27.5C 1.59721,24.2754 4.59721,22.2754 8.5,21.5 Z"/></g>
<g><path style="opacity:1" fill="#6c85e8" d="M 8.5,21.5 C 9.5,21.5 10.5,21.5 11.5,21.5C 12.8149,22.4756 14.1482,23.4756 15.5,24.5C 16.8518,23.4756 18.1851,22.4756 19.5,21.5C 20.5,21.5 21.5,21.5 22.5,21.5C 21.942,23.5635 20.7754,25.2302 19,26.5C 17.0025,25.3399 15.1692,25.3399 13.5,26.5C 10.7361,26.0012 9.06946,24.3345 8.5,21.5 Z"/></g>
<g><path style="opacity:0.963" fill="#e4e0f9" d="M 22.5,21.5 C 26.4028,22.2754 29.4028,24.2754 31.5,27.5C 31.5,28.8333 31.5,30.1667 31.5,31.5C 26.1667,31.5 20.8333,31.5 15.5,31.5C 15.9227,29.2188 15.256,27.5521 13.5,26.5C 15.1692,25.3399 17.0025,25.3399 19,26.5C 20.7754,25.2302 21.942,23.5635 22.5,21.5 Z"/></g>
</svg>
