<?xml version="1.0" encoding="UTF-8"?>
<!DOCTYPE svg PUBLIC "-//W3C//DTD SVG 1.1//EN" "http://www.w3.org/Graphics/SVG/1.1/DTD/svg11.dtd">
<svg xmlns="http://www.w3.org/2000/svg" version="1.1" width="32px" height="32px" style="shape-rendering:geometricPrecision; text-rendering:geometricPrecision; image-rendering:optimizeQuality; fill-rule:evenodd; clip-rule:evenodd" xmlns:xlink="http://www.w3.org/1999/xlink">
<g><path style="opacity:0.973" fill="#5d455b" d="M 12.5,-0.5 C 14.8333,-0.5 17.1667,-0.5 19.5,-0.5C 20.1667,0.166667 20.8333,0.833333 21.5,1.5C 22.5463,3.78493 22.5463,6.11826 21.5,8.5C 20.5655,7.43236 20.2322,6.09903 20.5,4.5C 18.5,4.5 16.5,4.5 14.5,4.5C 13.1667,4.5 11.8333,4.5 10.5,4.5C 10.7678,6.09903 10.4345,7.43236 9.5,8.5C 9.57918,7.06953 9.24585,5.73619 8.5,4.5C 9.82624,3.35782 10.8262,2.02449 11.5,0.5C 12.1667,0.5 12.5,0.166667 12.5,-0.5 Z"/></g>
<g><path style="opacity:1" fill="#f6a476" d="M 14.5,4.5 C 14.5668,6.40078 14.2335,8.23411 13.5,10C 14.0779,11.8114 14.5779,13.6447 15,15.5C 15.8159,16.8228 16.9826,17.4894 18.5,17.5C 18.2624,19.4044 17.2624,20.7377 15.5,21.5C 13.8058,20.4726 12.4725,19.1392 11.5,17.5C 10.8333,14.5 10.1667,11.5 9.5,8.5C 10.4345,7.43236 10.7678,6.09903 10.5,4.5C 11.8333,4.5 13.1667,4.5 14.5,4.5 Z"/></g>
<g><path style="opacity:1" fill="#fbc2a5" d="M 14.5,4.5 C 16.5,4.5 18.5,4.5 20.5,4.5C 20.2322,6.09903 20.5655,7.43236 21.5,8.5C 21.0231,11.655 20.0231,14.655 18.5,17.5C 16.9826,17.4894 15.8159,16.8228 15,15.5C 14.5779,13.6447 14.0779,11.8114 13.5,10C 14.2335,8.23411 14.5668,6.40078 14.5,4.5 Z"/></g>
<g><path style="opacity:1" fill="#fdd43f" d="M 11.5,0.5 C 10.8262,2.02449 9.82624,3.35782 8.5,4.5C 9.24585,5.73619 9.57918,7.06953 9.5,8.5C 10.1667,11.5 10.8333,14.5 11.5,17.5C 8.03555,19.3173 4.70222,21.3173 1.5,23.5C 1.01131,22.0048 0.344644,20.6715 -0.5,19.5C -0.5,17.1667 -0.5,14.8333 -0.5,12.5C 1.77948,6.88706 5.77948,2.88706 11.5,0.5 Z"/></g>
<g><path style="opacity:1" fill="#fdd540" d="M 21.5,1.5 C 26.2811,3.94332 29.6144,7.60999 31.5,12.5C 31.5,14.8333 31.5,17.1667 31.5,19.5C 30.6554,20.6715 29.9887,22.0048 29.5,23.5C 25.8333,21.5 22.1667,19.5 18.5,17.5C 20.0231,14.655 21.0231,11.655 21.5,8.5C 22.5463,6.11826 22.5463,3.78493 21.5,1.5 Z"/></g>
<g><path style="opacity:0.997" fill="#a399ec" d="M 18.5,17.5 C 22.1667,19.5 25.8333,21.5 29.5,23.5C 27.8054,27.1947 25.1387,29.8613 21.5,31.5C 19.5,31.5 17.5,31.5 15.5,31.5C 15.5,28.1667 15.5,24.8333 15.5,21.5C 17.2624,20.7377 18.2624,19.4044 18.5,17.5 Z"/></g>
<g><path style="opacity:0.957" fill="#7f6bce" d="M 11.5,17.5 C 12.4725,19.1392 13.8058,20.4726 15.5,21.5C 15.5,24.8333 15.5,28.1667 15.5,31.5C 13.5,31.5 11.5,31.5 9.5,31.5C 5.9734,29.7284 3.30673,27.0617 1.5,23.5C 4.70222,21.3173 8.03555,19.3173 11.5,17.5 Z"/></g>
</svg>
