<?xml version="1.0" encoding="UTF-8"?>
<!DOCTYPE svg PUBLIC "-//W3C//DTD SVG 1.1//EN" "http://www.w3.org/Graphics/SVG/1.1/DTD/svg11.dtd">
<svg xmlns="http://www.w3.org/2000/svg" version="1.1" width="32px" height="32px" style="shape-rendering:geometricPrecision; text-rendering:geometricPrecision; image-rendering:optimizeQuality; fill-rule:evenodd; clip-rule:evenodd" xmlns:xlink="http://www.w3.org/1999/xlink">
<g><path style="opacity:0.846" fill="#342b2c" d="M 2.5,-0.5 C 6.83333,-0.5 11.1667,-0.5 15.5,-0.5C 15.9577,2.39382 15.291,4.89382 13.5,7C 14.745,7.79142 16.0783,8.29142 17.5,8.5C 17.5,9.16667 17.5,9.83333 17.5,10.5C 17.6716,11.4916 17.3382,12.1583 16.5,12.5C 16.5,12.8333 16.5,13.1667 16.5,13.5C 10.7291,12.8872 5.3958,13.5539 0.5,15.5C 0.166667,15.5 -0.166667,15.5 -0.5,15.5C -0.5,13.5 -0.5,11.5 -0.5,9.5C 0.682751,8.49551 2.01608,7.66218 3.5,7C 1.16832,4.81637 0.834984,2.31637 2.5,-0.5 Z"/></g>
<g><path style="opacity:1" fill="#ccc1b4" d="M 3.5,1.5 C 4.76214,4.07081 6.09547,4.07081 7.5,1.5C 8.19238,2.02527 8.69238,2.69194 9,3.5C 10,0.833333 11,0.833333 12,3.5C 12.3076,2.69194 12.8076,2.02527 13.5,1.5C 14.4287,2.68884 14.762,4.02218 14.5,5.5C 10.8333,5.5 7.16667,5.5 3.5,5.5C 3.5,4.16667 3.5,2.83333 3.5,1.5 Z"/></g>
<g><path style="opacity:1" fill="#9e2a3d" d="M 5.5,6.5 C 7.92397,6.19244 10.2573,6.52577 12.5,7.5C 11.3333,7.83333 10.1667,8.16667 9,8.5C 7.31887,8.39174 6.1522,7.72507 5.5,6.5 Z"/></g>
<g><path style="opacity:1" fill="#de3844" d="M 16.5,12.5 C 11.1254,12.8282 5.79207,12.4948 0.5,11.5C 0.709312,10.914 1.04265,10.414 1.5,10C 6.16667,9.33333 10.8333,9.33333 15.5,10C 16.2524,10.6708 16.5858,11.5041 16.5,12.5 Z"/></g>
<g><path style="opacity:0.934" fill="#2f2b2b" d="M 31.5,14.5 C 31.5,19.8333 31.5,25.1667 31.5,30.5C 30.8333,30.5 30.5,30.8333 30.5,31.5C 28.8333,31.5 27.1667,31.5 25.5,31.5C 25.5,31.1667 25.5,30.8333 25.5,30.5C 26.9187,29.5489 28.5853,29.2155 30.5,29.5C 30.5,24.8333 30.5,20.1667 30.5,15.5C 25.8333,15.5 21.1667,15.5 16.5,15.5C 16.5,14.8333 16.5,14.1667 16.5,13.5C 16.5,13.1667 16.5,12.8333 16.5,12.5C 17.3382,12.1583 17.6716,11.4916 17.5,10.5C 18.404,11.209 18.7373,12.209 18.5,13.5C 20.1667,13.5 21.8333,13.5 23.5,13.5C 23.5,12.1667 23.5,10.8333 23.5,9.5C 21.3792,9.67474 19.3792,9.34141 17.5,8.5C 18.0232,2.6177 21.0232,0.284366 26.5,1.5C 27.6096,3.49589 27.2763,5.32922 25.5,7C 29.803,7.44813 31.1363,9.6148 29.5,13.5C 29.9569,14.2975 30.6236,14.6309 31.5,14.5 Z"/></g>
<g><path style="opacity:1" fill="#86533f" d="M 26.5,8.5 C 29.1402,9.79363 29.1402,11.127 26.5,12.5C 25.6919,12.1924 25.0253,11.6924 24.5,11C 25.756,10.5831 26.4226,9.74975 26.5,8.5 Z"/></g>
<g><path style="opacity:1" fill="#d3b262" d="M 20.5,4.5 C 22.6246,5.36758 22.7913,6.36758 21,7.5C 19.3167,6.82352 19.1501,5.82352 20.5,4.5 Z"/></g>
<g><path style="opacity:1" fill="#2a8d81" d="M 22.5,2.5 C 25.5476,2.49403 26.0476,3.49403 24,5.5C 22.9614,4.75618 22.4614,3.75618 22.5,2.5 Z"/></g>
<g><path style="opacity:1" fill="#a6a19c" d="M 16.5,13.5 C 16.5,14.1667 16.5,14.8333 16.5,15.5C 16.1667,15.5 15.8333,15.5 15.5,15.5C 10.5999,14.2001 5.59986,14.2001 0.5,15.5C 5.3958,13.5539 10.7291,12.8872 16.5,13.5 Z"/></g>
<g><path style="opacity:1" fill="#f6eee4" d="M 15.5,15.5 C 14.5233,18.2869 14.19,21.2869 14.5,24.5C 10.1667,24.5 5.83333,24.5 1.5,24.5C 1.73731,23.209 1.40397,22.209 0.5,21.5C 0.166667,21.5 -0.166667,21.5 -0.5,21.5C -0.5,19.5 -0.5,17.5 -0.5,15.5C -0.166667,15.5 0.166667,15.5 0.5,15.5C 5.59986,14.2001 10.5999,14.2001 15.5,15.5 Z"/></g>
<g><path style="opacity:1" fill="#e3dacb" d="M 16.5,15.5 C 21.1667,15.5 25.8333,15.5 30.5,15.5C 30.5,20.1667 30.5,24.8333 30.5,29.5C 28.5853,29.2155 26.9187,29.5489 25.5,30.5C 24.8333,30.5 24.1667,30.5 23.5,30.5C 21.3926,29.5318 19.0593,29.1984 16.5,29.5C 16.5,24.8333 16.5,20.1667 16.5,15.5 Z"/></g>
<g><path style="opacity:1" fill="#5a443c" d="M 18.5,17.5 C 19.8333,17.5 21.1667,17.5 22.5,17.5C 22.1144,21.7376 20.4477,22.4043 17.5,19.5C 17.8627,18.8165 18.1961,18.1499 18.5,17.5 Z"/></g>
<g><path style="opacity:1" fill="#4f3f39" d="M 24.5,17.5 C 25.8333,17.5 27.1667,17.5 28.5,17.5C 28.5,18.8333 28.5,20.1667 28.5,21.5C 27.1667,21.5 25.8333,21.5 24.5,21.5C 24.5,20.1667 24.5,18.8333 24.5,17.5 Z"/></g>
<g><path style="opacity:1" fill="#574f4f" d="M 7.5,15.5 C 10.4905,15.3297 12.4905,16.663 13.5,19.5C 10.8333,24.8333 8.16667,24.8333 5.5,19.5C 6.22547,18.1331 6.89213,16.7997 7.5,15.5 Z"/></g>
<g><path style="opacity:1" fill="#992a3c" d="M 8.5,16.5 C 13.0205,17.9753 13.3538,19.9753 9.5,22.5C 8.5,21.5 7.5,20.5 6.5,19.5C 7.61191,18.7348 8.27858,17.7348 8.5,16.5 Z"/></g>
<g><path style="opacity:1" fill="#a39f99" d="M 15.5,15.5 C 15.5,18.8333 15.5,22.1667 15.5,25.5C 10.5,25.5 5.5,25.5 0.5,25.5C 0.5,24.1667 0.5,22.8333 0.5,21.5C 1.40397,22.209 1.73731,23.209 1.5,24.5C 5.83333,24.5 10.1667,24.5 14.5,24.5C 14.19,21.2869 14.5233,18.2869 15.5,15.5 Z"/></g>
<g><path style="opacity:1" fill="#59473e" d="M 25.5,23.5 C 26.5,23.5 27.5,23.5 28.5,23.5C 28.8841,25.6648 28.2174,27.3315 26.5,28.5C 24.2957,27.218 23.9624,25.5514 25.5,23.5 Z"/></g>
<g><path style="opacity:1" fill="#604e46" d="M 18.5,23.5 C 22.1612,23.3501 23.1612,24.8501 21.5,28C 17.7071,28.4866 16.7071,26.9866 18.5,23.5 Z"/></g>
<g><path style="opacity:0.712" fill="#342c2d" d="M 15.5,15.5 C 15.8333,15.5 16.1667,15.5 16.5,15.5C 16.5,20.1667 16.5,24.8333 16.5,29.5C 19.0593,29.1984 21.3926,29.5318 23.5,30.5C 23.5,30.8333 23.5,31.1667 23.5,31.5C 16.1667,31.5 8.83333,31.5 1.5,31.5C 1.15829,30.6618 0.491622,30.3284 -0.5,30.5C -0.5,27.5 -0.5,24.5 -0.5,21.5C -0.166667,21.5 0.166667,21.5 0.5,21.5C 0.5,22.8333 0.5,24.1667 0.5,25.5C 5.5,25.5 10.5,25.5 15.5,25.5C 15.5,22.1667 15.5,18.8333 15.5,15.5 Z"/></g>
<g><path style="opacity:1" fill="#dd3844" d="M 0.5,26.5 C 5.5,26.5 10.5,26.5 15.5,26.5C 15.5,27.5 15.5,28.5 15.5,29.5C 10.8215,29.6658 6.1548,29.4992 1.5,29C 0.747561,28.3292 0.414228,27.4959 0.5,26.5 Z"/></g>
</svg>
