<?xml version="1.0" encoding="UTF-8"?>
<!DOCTYPE svg PUBLIC "-//W3C//DTD SVG 1.1//EN" "http://www.w3.org/Graphics/SVG/1.1/DTD/svg11.dtd">
<svg xmlns="http://www.w3.org/2000/svg" version="1.1" width="32px" height="32px" style="shape-rendering:geometricPrecision; text-rendering:geometricPrecision; image-rendering:optimizeQuality; fill-rule:evenodd; clip-rule:evenodd" xmlns:xlink="http://www.w3.org/1999/xlink">
<g><path style="opacity:0.998" fill="#ff990c" d="M 12.5,-0.5 C 14.5,-0.5 16.5,-0.5 18.5,-0.5C 18.5,0.833333 18.5,2.16667 18.5,3.5C 17.5,3.5 16.5,3.5 15.5,3.5C 14.5,3.5 13.5,3.5 12.5,3.5C 12.5,2.16667 12.5,0.833333 12.5,-0.5 Z"/></g>
<g><path style="opacity:0.74" fill="#ff8e6c" d="M 3.5,-0.5 C 4.5,-0.5 5.5,-0.5 6.5,-0.5C 6.5,0.5 6.5,1.5 6.5,2.5C 8.17876,2.28519 9.17876,2.95186 9.5,4.5C 8.83333,4.5 8.5,4.83333 8.5,5.5C 7.83333,5.5 7.5,5.83333 7.5,6.5C 6.66175,6.84171 6.32842,7.50838 6.5,8.5C 5.59603,9.20895 5.26269,10.209 5.5,11.5C 3.87623,11.6399 2.70956,10.9733 2,9.5C 1.32924,10.2524 0.495904,10.5858 -0.5,10.5C -0.5,8.83333 -0.5,7.16667 -0.5,5.5C 0.820176,3.53684 2.15351,1.53684 3.5,-0.5 Z"/></g>
<g><path style="opacity:0.645" fill="#ff654c" d="M 24.5,-0.5 C 25.5,-0.5 26.5,-0.5 27.5,-0.5C 28.8465,1.53684 30.1798,3.53684 31.5,5.5C 31.5,7.16667 31.5,8.83333 31.5,10.5C 30.5041,10.5858 29.6708,10.2524 29,9.5C 28.2904,10.9733 27.1238,11.6399 25.5,11.5C 25.7373,10.209 25.404,9.20895 24.5,8.5C 24.6716,7.50838 24.3382,6.84171 23.5,6.5C 23.5,5.83333 23.1667,5.5 22.5,5.5C 22.5,4.83333 22.1667,4.5 21.5,4.5C 21.8212,2.95186 22.8212,2.28519 24.5,2.5C 24.5,1.5 24.5,0.5 24.5,-0.5 Z"/></g>
<g><path style="opacity:0.975" fill="#ffce2c" d="M 12.5,3.5 C 13.5,3.5 14.5,3.5 15.5,3.5C 15.5,9.83333 15.5,16.1667 15.5,22.5C 11.8333,22.5 8.16667,22.5 4.5,22.5C 6.2157,18.0284 6.88237,13.3617 6.5,8.5C 7.33825,8.15829 7.67158,7.49162 7.5,6.5C 8.16667,6.5 8.5,6.16667 8.5,5.5C 9.16667,5.5 9.5,5.16667 9.5,4.5C 10.391,3.89022 11.391,3.55688 12.5,3.5 Z"/></g>
<g><path style="opacity:1" fill="#ffc12e" d="M 15.5,3.5 C 16.5,3.5 17.5,3.5 18.5,3.5C 19.609,3.55688 20.609,3.89022 21.5,4.5C 22.1667,4.5 22.5,4.83333 22.5,5.5C 23.1667,5.5 23.5,5.83333 23.5,6.5C 23.3284,7.49162 23.6618,8.15829 24.5,8.5C 24.1176,13.3617 24.7843,18.0284 26.5,22.5C 22.8333,22.5 19.1667,22.5 15.5,22.5C 15.5,16.1667 15.5,9.83333 15.5,3.5 Z"/></g>
<g><path style="opacity:0.994" fill="#ffe64d" d="M 4.5,22.5 C 8.16667,22.5 11.8333,22.5 15.5,22.5C 19.1667,22.5 22.8333,22.5 26.5,22.5C 27.807,24.2232 27.807,26.0565 26.5,28C 24.1902,28.4966 21.8568,28.6633 19.5,28.5C 16.8333,28.5 14.1667,28.5 11.5,28.5C 9.14316,28.6633 6.80982,28.4966 4.5,28C 3.19299,26.0565 3.19299,24.2232 4.5,22.5 Z"/></g>
<g><path style="opacity:0.998" fill="#ff9c0e" d="M 11.5,28.5 C 14.1667,28.5 16.8333,28.5 19.5,28.5C 19.4431,29.609 19.1098,30.609 18.5,31.5C 16.5,31.5 14.5,31.5 12.5,31.5C 11.8902,30.609 11.5569,29.609 11.5,28.5 Z"/></g>
</svg>
