<?xml version="1.0" encoding="UTF-8"?>
<!DOCTYPE svg PUBLIC "-//W3C//DTD SVG 1.1//EN" "http://www.w3.org/Graphics/SVG/1.1/DTD/svg11.dtd">
<svg xmlns="http://www.w3.org/2000/svg" version="1.1" width="32px" height="32px" style="shape-rendering:geometricPrecision; text-rendering:geometricPrecision; image-rendering:optimizeQuality; fill-rule:evenodd; clip-rule:evenodd" xmlns:xlink="http://www.w3.org/1999/xlink">
<g><path style="opacity:1" fill="#dbe7f0" d="M 14.5,-0.5 C 14.8333,-0.5 15.1667,-0.5 15.5,-0.5C 18.2281,0.205242 21.0614,0.871909 24,1.5C 24.498,4.48162 24.6646,7.48162 24.5,10.5C 24.1667,10.5 23.8333,10.5 23.5,10.5C 23.4894,8.98261 22.8228,7.81595 21.5,7C 17.4589,6.17347 13.4589,6.34014 9.5,7.5C 8.38809,8.26515 7.72142,9.26515 7.5,10.5C 7.16667,10.5 6.83333,10.5 6.5,10.5C 6.5,7.16667 6.5,3.83333 6.5,0.5C 9.38544,0.8064 12.0521,0.473067 14.5,-0.5 Z"/></g>
<g><path style="opacity:1" fill="#43494e" d="M 23.5,10.5 C 20.7131,11.4767 17.7131,11.81 14.5,11.5C 15.9187,10.5489 17.5853,10.2155 19.5,10.5C 19.5,9.5 19.5,8.5 19.5,7.5C 16.8333,7.5 14.1667,7.5 11.5,7.5C 11.4326,8.95875 11.7659,10.2921 12.5,11.5C 10.5853,11.7845 8.91866,11.4511 7.5,10.5C 7.72142,9.26515 8.38809,8.26515 9.5,7.5C 13.4589,6.34014 17.4589,6.17347 21.5,7C 22.8228,7.81595 23.4894,8.98261 23.5,10.5 Z"/></g>
<g><path style="opacity:1" fill="#d5e8fa" d="M 14.5,11.5 C 13.8333,11.5 13.1667,11.5 12.5,11.5C 11.7659,10.2921 11.4326,8.95875 11.5,7.5C 14.1667,7.5 16.8333,7.5 19.5,7.5C 19.5,8.5 19.5,9.5 19.5,10.5C 17.5853,10.2155 15.9187,10.5489 14.5,11.5 Z"/></g>
<g><path style="opacity:0.74" fill="#121010" d="M 5.5,-0.5 C 8.5,-0.5 11.5,-0.5 14.5,-0.5C 12.0521,0.473067 9.38544,0.8064 6.5,0.5C 6.5,3.83333 6.5,7.16667 6.5,10.5C 5.08134,11.4511 3.41467,11.7845 1.5,11.5C 1.5,14.5 1.5,17.5 1.5,20.5C 3.41467,20.2155 5.08134,20.5489 6.5,21.5C 6.5,24.5 6.5,27.5 6.5,30.5C 8.09903,30.2322 9.43236,30.5655 10.5,31.5C 8.83333,31.5 7.16667,31.5 5.5,31.5C 4.67577,28.2356 4.34243,24.9023 4.5,21.5C 3.16667,21.5 1.83333,21.5 0.5,21.5C 0.5,17.8333 0.5,14.1667 0.5,10.5C 1.83333,10.5 3.16667,10.5 4.5,10.5C 4.32274,6.76574 4.65608,3.09907 5.5,-0.5 Z"/></g>
<g><path style="opacity:1" fill="#a66267" d="M 23.5,10.5 C 23.8333,10.5 24.1667,10.5 24.5,10.5C 25.9187,11.4511 27.5853,11.7845 29.5,11.5C 29.5,14.5 29.5,17.5 29.5,20.5C 27.5853,20.2155 25.9187,20.5489 24.5,21.5C 24.1667,21.5 23.8333,21.5 23.5,21.5C 22.0813,20.5489 20.4147,20.2155 18.5,20.5C 21.6248,19.5206 24.9581,19.1872 28.5,19.5C 28.5,17.8333 28.5,16.1667 28.5,14.5C 24.0874,12.8616 19.4208,11.8616 14.5,11.5C 17.7131,11.81 20.7131,11.4767 23.5,10.5 Z"/></g>
<g><path style="opacity:0.762" fill="#161314" d="M 15.5,-0.5 C 18.8333,-0.5 22.1667,-0.5 25.5,-0.5C 26.3439,3.09907 26.6773,6.76574 26.5,10.5C 27.8333,10.5 29.1667,10.5 30.5,10.5C 30.5,14.1667 30.5,17.8333 30.5,21.5C 29.1667,21.5 27.8333,21.5 26.5,21.5C 26.6576,24.9023 26.3242,28.2356 25.5,31.5C 20.8333,31.5 16.1667,31.5 11.5,31.5C 15.3123,30.6762 19.3123,30.1762 23.5,30C 24.4438,27.2809 24.7771,24.4475 24.5,21.5C 25.9187,20.5489 27.5853,20.2155 29.5,20.5C 29.5,17.5 29.5,14.5 29.5,11.5C 27.5853,11.7845 25.9187,11.4511 24.5,10.5C 24.6646,7.48162 24.498,4.48162 24,1.5C 21.0614,0.871909 18.2281,0.205242 15.5,-0.5 Z"/></g>
<g><path style="opacity:1" fill="#ca7a80" d="M 6.5,10.5 C 6.83333,10.5 7.16667,10.5 7.5,10.5C 8.91866,11.4511 10.5853,11.7845 12.5,11.5C 13.1667,11.5 13.8333,11.5 14.5,11.5C 19.4208,11.8616 24.0874,12.8616 28.5,14.5C 28.1667,14.5 27.8333,14.5 27.5,14.5C 26.5,13.1667 25.5,13.1667 24.5,14.5C 24.5,15.1667 24.1667,15.5 23.5,15.5C 20.9028,15.2792 20.9028,14.7792 23.5,14C 18.2993,14.0941 12.9659,13.9274 7.5,13.5C 7.5,15.1667 7.5,16.8333 7.5,18.5C 6.50838,18.6716 5.84171,18.3382 5.5,17.5C 6.23411,16.2921 6.56745,14.9587 6.5,13.5C 5.5,13.5 4.5,13.5 3.5,13.5C 3.5,15.1667 3.5,16.8333 3.5,18.5C 7.25404,19.2195 11.5874,19.8861 16.5,20.5C 13.2869,20.19 10.2869,20.5233 7.5,21.5C 7.16667,21.5 6.83333,21.5 6.5,21.5C 5.08134,20.5489 3.41467,20.2155 1.5,20.5C 1.5,17.5 1.5,14.5 1.5,11.5C 3.41467,11.7845 5.08134,11.4511 6.5,10.5 Z"/></g>
<g><path style="opacity:1" fill="#523234" d="M 23.5,15.5 C 24.087,16.7666 24.087,17.7666 23.5,18.5C 21.6123,18.0549 19.6123,18.0549 17.5,18.5C 15.9446,18.278 14.6113,17.6113 13.5,16.5C 11.8273,18.0863 9.82733,18.7529 7.5,18.5C 7.5,16.8333 7.5,15.1667 7.5,13.5C 12.9659,13.9274 18.2993,14.0941 23.5,14C 20.9028,14.7792 20.9028,15.2792 23.5,15.5 Z"/></g>
<g><path style="opacity:1" fill="#f5939a" d="M 16.5,14.5 C 18.4646,14.9483 18.7979,15.9483 17.5,17.5C 15.4807,16.8671 15.1474,15.8671 16.5,14.5 Z"/></g>
<g><path style="opacity:1" fill="#1d1213" d="M 24.5,14.5 C 25.5,13.1667 26.5,13.1667 27.5,14.5C 26.71,15.6085 26.21,16.9419 26,18.5C 25.79,16.9419 25.29,15.6085 24.5,14.5 Z"/></g>
<g><path style="opacity:1" fill="#2b1b1c" d="M 5.5,17.5 C 4.83333,17.8333 4.16667,18.1667 3.5,18.5C 3.5,16.8333 3.5,15.1667 3.5,13.5C 4.5,13.5 5.5,13.5 6.5,13.5C 6.56745,14.9587 6.23411,16.2921 5.5,17.5 Z"/></g>
<g><path style="opacity:1" fill="#f5949a" d="M 8.5,15.5 C 9.30225,14.1153 9.96892,14.282 10.5,16C 10.1667,16.5 9.83333,17 9.5,17.5C 9.21285,16.7997 8.87952,16.1331 8.5,15.5 Z"/></g>
<g><path style="opacity:1" fill="#f19197" d="M 24.5,14.5 C 25.29,15.6085 25.79,16.9419 26,18.5C 26.21,16.9419 26.71,15.6085 27.5,14.5C 27.8333,14.5 28.1667,14.5 28.5,14.5C 28.5,16.1667 28.5,17.8333 28.5,19.5C 24.9581,19.1872 21.6248,19.5206 18.5,20.5C 18.1667,20.5 17.8333,20.5 17.5,20.5C 17.1667,20.5 16.8333,20.5 16.5,20.5C 11.5874,19.8861 7.25404,19.2195 3.5,18.5C 4.16667,18.1667 4.83333,17.8333 5.5,17.5C 5.84171,18.3382 6.50838,18.6716 7.5,18.5C 9.82733,18.7529 11.8273,18.0863 13.5,16.5C 14.6113,17.6113 15.9446,18.278 17.5,18.5C 19.6123,18.0549 21.6123,18.0549 23.5,18.5C 24.087,17.7666 24.087,16.7666 23.5,15.5C 24.1667,15.5 24.5,15.1667 24.5,14.5 Z"/></g>
<g><path style="opacity:1" fill="#e4f1fb" d="M 6.5,21.5 C 6.83333,21.5 7.16667,21.5 7.5,21.5C 7.23219,23.099 7.56552,24.4324 8.5,25.5C 12.5,26.8333 16.5,26.8333 20.5,25.5C 21.8776,24.4549 22.8776,23.1216 23.5,21.5C 23.8333,21.5 24.1667,21.5 24.5,21.5C 24.7771,24.4475 24.4438,27.2809 23.5,30C 19.3123,30.1762 15.3123,30.6762 11.5,31.5C 11.1667,31.5 10.8333,31.5 10.5,31.5C 9.43236,30.5655 8.09903,30.2322 6.5,30.5C 6.5,27.5 6.5,24.5 6.5,21.5 Z"/></g>
<g><path style="opacity:1" fill="#3e4349" d="M 16.5,20.5 C 16.8333,20.5 17.1667,20.5 17.5,20.5C 15.369,21.3138 13.0356,21.8138 10.5,22C 14.5,22.6667 18.5,22.6667 22.5,22C 20.9419,21.79 19.6085,21.29 18.5,20.5C 20.4147,20.2155 22.0813,20.5489 23.5,21.5C 22.8776,23.1216 21.8776,24.4549 20.5,25.5C 16.8106,24.1136 12.9773,22.7803 9,21.5C 8.50999,22.7932 8.34332,24.1266 8.5,25.5C 7.56552,24.4324 7.23219,23.099 7.5,21.5C 10.2869,20.5233 13.2869,20.19 16.5,20.5 Z"/></g>
<g><path style="opacity:1" fill="#d2e5f7" d="M 17.5,20.5 C 17.8333,20.5 18.1667,20.5 18.5,20.5C 19.6085,21.29 20.9419,21.79 22.5,22C 18.5,22.6667 14.5,22.6667 10.5,22C 13.0356,21.8138 15.369,21.3138 17.5,20.5 Z"/></g>
<g><path style="opacity:1" fill="#7d8a96" d="M 20.5,25.5 C 16.5,26.8333 12.5,26.8333 8.5,25.5C 8.34332,24.1266 8.50999,22.7932 9,21.5C 12.9773,22.7803 16.8106,24.1136 20.5,25.5 Z"/></g>
</svg>
