<?xml version="1.0" encoding="UTF-8"?>
<!DOCTYPE svg PUBLIC "-//W3C//DTD SVG 1.1//EN" "http://www.w3.org/Graphics/SVG/1.1/DTD/svg11.dtd">
<svg xmlns="http://www.w3.org/2000/svg" version="1.1" width="32px" height="32px" style="shape-rendering:geometricPrecision; text-rendering:geometricPrecision; image-rendering:optimizeQuality; fill-rule:evenodd; clip-rule:evenodd" xmlns:xlink="http://www.w3.org/1999/xlink">
<g><path style="opacity:0.943" fill="#fdc71c" d="M 9.5,-0.5 C 13.5,-0.5 17.5,-0.5 21.5,-0.5C 25.8333,1.83333 29.1667,5.16667 31.5,9.5C 31.5,11.8333 31.5,14.1667 31.5,16.5C 28.7883,14.1152 26.1216,11.7819 23.5,9.5C 19.4012,5.27737 15.5678,5.6107 12,10.5C 11.6948,12.5568 11.6948,14.5568 12,16.5C 9.77764,18.3848 7.94431,20.5515 6.5,23C 6.83611,24.0299 7.50278,24.5299 8.5,24.5C 10.5798,26.5732 12.2464,28.9066 13.5,31.5C 12.1667,31.5 10.8333,31.5 9.5,31.5C 5.16667,29.1667 1.83333,25.8333 -0.5,21.5C -0.5,17.5 -0.5,13.5 -0.5,9.5C 1.83333,5.16667 5.16667,1.83333 9.5,-0.5 Z"/></g>
<g><path style="opacity:1" fill="#d58d08" d="M 23.5,9.5 C 26.1216,11.7819 28.7883,14.1152 31.5,16.5C 31.5,18.1667 31.5,19.8333 31.5,21.5C 29.1667,25.8333 25.8333,29.1667 21.5,31.5C 18.8333,31.5 16.1667,31.5 13.5,31.5C 12.2464,28.9066 10.5798,26.5732 8.5,24.5C 10.7966,22.7059 12.9633,20.7059 15,18.5C 22.7556,20.2433 25.589,17.2433 23.5,9.5 Z"/></g>
<g><path style="opacity:1" fill="#2c305a" d="M 23.5,9.5 C 25.589,17.2433 22.7556,20.2433 15,18.5C 12.9633,20.7059 10.7966,22.7059 8.5,24.5C 7.50278,24.5299 6.83611,24.0299 6.5,23C 7.94431,20.5515 9.77764,18.3848 12,16.5C 11.6948,14.5568 11.6948,12.5568 12,10.5C 15.5678,5.6107 19.4012,5.27737 23.5,9.5 Z"/></g>
<g><path style="opacity:1" fill="#4fcfe0" d="M 15.5,8.5 C 22.4863,8.33101 24.153,11.1643 20.5,17C 13.4159,17.475 11.7492,14.6417 15.5,8.5 Z"/></g>
</svg>
