<?xml version="1.0" encoding="UTF-8"?>
<!DOCTYPE svg PUBLIC "-//W3C//DTD SVG 1.1//EN" "http://www.w3.org/Graphics/SVG/1.1/DTD/svg11.dtd">
<svg xmlns="http://www.w3.org/2000/svg" version="1.1" width="32px" height="32px" style="shape-rendering:geometricPrecision; text-rendering:geometricPrecision; image-rendering:optimizeQuality; fill-rule:evenodd; clip-rule:evenodd" xmlns:xlink="http://www.w3.org/1999/xlink">
<g><path style="opacity:0.942" fill="#77d2a0" d="M 6.5,0.5 C 6.5,0.166667 6.5,-0.166667 6.5,-0.5C 8.5,-0.5 10.5,-0.5 12.5,-0.5C 14.7442,1.58437 16.4108,4.08437 17.5,7C 17.3613,8.30105 16.6946,9.13438 15.5,9.5C 12.6146,9.8064 9.9479,9.47307 7.5,8.5C 7.8064,5.61456 7.47307,2.9479 6.5,0.5 Z"/></g>
<g><path style="opacity:0.907" fill="#dbe8f9" d="M 18.5,-0.5 C 22.8333,-0.5 27.1667,-0.5 31.5,-0.5C 31.5,2.83333 31.5,6.16667 31.5,9.5C 27.4862,9.66551 23.4862,9.49885 19.5,9C 18.5495,5.94325 18.2161,2.77659 18.5,-0.5 Z"/></g>
<g><path style="opacity:0.94" fill="#f2e86b" d="M 6.5,0.5 C 7.47307,2.9479 7.8064,5.61456 7.5,8.5C 6.39105,8.44312 5.39105,8.10978 4.5,7.5C 4.5,5.5 4.5,3.5 4.5,1.5C 4.84171,0.661754 5.50838,0.32842 6.5,0.5 Z"/></g>
<g><path style="opacity:0.799" fill="#f8d91b" d="M 4.5,1.5 C 4.5,3.5 4.5,5.5 4.5,7.5C 2.95047,6.5592 1.2838,5.89254 -0.5,5.5C -0.5,5.16667 -0.5,4.83333 -0.5,4.5C 0.922032,3.07501 2.5887,2.07501 4.5,1.5 Z"/></g>
<g><path style="opacity:0.867" fill="#fd796b" d="M -0.5,5.5 C 1.2838,5.89254 2.95047,6.5592 4.5,7.5C 5.39383,10.9566 7.0605,13.9566 9.5,16.5C 8.05361,17.6129 6.38695,17.7796 4.5,17C 2.67694,16.0027 1.01027,14.8361 -0.5,13.5C -0.5,10.8333 -0.5,8.16667 -0.5,5.5 Z"/></g>
<g><path style="opacity:0.948" fill="#ff948b" d="M 4.5,7.5 C 5.39105,8.10978 6.39105,8.44312 7.5,8.5C 9.9479,9.47307 12.6146,9.8064 15.5,9.5C 15.5729,13.7202 13.5729,16.0536 9.5,16.5C 7.0605,13.9566 5.39383,10.9566 4.5,7.5 Z"/></g>
<g><path style="opacity:0.917" fill="#f7d91b" d="M 25.5,12.5 C 24.5509,17.7401 24.2175,23.0735 24.5,28.5C 23.8333,28.5 23.1667,28.5 22.5,28.5C 22.5,23.8333 22.5,19.1667 22.5,14.5C 22.8212,12.9519 23.8212,12.2852 25.5,12.5 Z"/></g>
<g><path style="opacity:0.967" fill="#f7e965" d="M 25.5,12.5 C 26.4959,12.4142 27.3292,12.7476 28,13.5C 28.4993,18.4889 28.6659,23.4889 28.5,28.5C 27.1667,28.5 25.8333,28.5 24.5,28.5C 24.2175,23.0735 24.5509,17.7401 25.5,12.5 Z"/></g>
<g><path style="opacity:0.969" fill="#77dbfe" d="M 17.5,16.5 C 17.5,16.8333 17.5,17.1667 17.5,17.5C 17.5,21.1667 17.5,24.8333 17.5,28.5C 16.1667,28.5 14.8333,28.5 13.5,28.5C 13.81,25.2869 13.4767,22.2869 12.5,19.5C 12.5,19.1667 12.5,18.8333 12.5,18.5C 13.6354,16.7868 15.302,16.1201 17.5,16.5 Z"/></g>
<g><path style="opacity:1" fill="#e7a379" d="M 22.5,14.5 C 22.5,19.1667 22.5,23.8333 22.5,28.5C 21.1667,28.5 19.8333,28.5 18.5,28.5C 18.815,24.6286 18.4816,20.9619 17.5,17.5C 17.5,17.1667 17.5,16.8333 17.5,16.5C 18.6354,14.7868 20.302,14.1201 22.5,14.5 Z"/></g>
<g><path style="opacity:0.834" fill="#fd8378" d="M 12.5,18.5 C 12.5,18.8333 12.5,19.1667 12.5,19.5C 12.5,22.5 12.5,25.5 12.5,28.5C 11.1667,28.5 9.83333,28.5 8.5,28.5C 8.72137,25.7212 8.38803,23.0545 7.5,20.5C 8.63535,18.7868 10.302,18.1201 12.5,18.5 Z"/></g>
<g><path style="opacity:1" fill="#6bcd97" d="M 7.5,20.5 C 8.38803,23.0545 8.72137,25.7212 8.5,28.5C 6.5,28.5 4.5,28.5 2.5,28.5C 2.33669,26.1432 2.50335,23.8098 3,21.5C 4.35613,20.6198 5.85613,20.2865 7.5,20.5 Z"/></g>
<g><path style="opacity:0.986" fill="#8393a5" d="M 17.5,17.5 C 18.4816,20.9619 18.815,24.6286 18.5,28.5C 19.8333,28.5 21.1667,28.5 22.5,28.5C 23.1667,28.5 23.8333,28.5 24.5,28.5C 25.8333,28.5 27.1667,28.5 28.5,28.5C 29.5,28.5 30.5,28.5 31.5,28.5C 31.5,29.5 31.5,30.5 31.5,31.5C 20.8333,31.5 10.1667,31.5 -0.5,31.5C -0.5,30.5 -0.5,29.5 -0.5,28.5C 0.5,28.5 1.5,28.5 2.5,28.5C 4.5,28.5 6.5,28.5 8.5,28.5C 9.83333,28.5 11.1667,28.5 12.5,28.5C 12.5,25.5 12.5,22.5 12.5,19.5C 13.4767,22.2869 13.81,25.2869 13.5,28.5C 14.8333,28.5 16.1667,28.5 17.5,28.5C 17.5,24.8333 17.5,21.1667 17.5,17.5 Z"/></g>
</svg>
