<?xml version="1.0" encoding="UTF-8"?>
<!DOCTYPE svg PUBLIC "-//W3C//DTD SVG 1.1//EN" "http://www.w3.org/Graphics/SVG/1.1/DTD/svg11.dtd">
<svg xmlns="http://www.w3.org/2000/svg" version="1.1" width="64px" height="64px" style="shape-rendering:geometricPrecision; text-rendering:geometricPrecision; image-rendering:optimizeQuality; fill-rule:evenodd; clip-rule:evenodd" xmlns:xlink="http://www.w3.org/1999/xlink">
<g><path style="opacity:0.947" fill="#40897a" d="M 27.5,-0.5 C 30.1667,-0.5 32.8333,-0.5 35.5,-0.5C 50.754,2.42152 60.0873,11.4215 63.5,26.5C 63.5,29.8333 63.5,33.1667 63.5,36.5C 60.0607,51.6059 50.7274,60.6059 35.5,63.5C 32.8333,63.5 30.1667,63.5 27.5,63.5C 12.0475,59.7146 2.71415,50.0479 -0.5,34.5C -0.5,32.5 -0.5,30.5 -0.5,28.5C 2.37812,12.6216 11.7115,2.95491 27.5,-0.5 Z"/></g>
<g><path style="opacity:1" fill="#66b5a5" d="M 24.5,6.5 C 39.7877,4.31482 50.2877,10.3148 56,24.5C 58.9394,40.4659 52.7727,50.9659 37.5,56C 15.5004,57 5.33372,46.5 7,24.5C 10.3531,15.9815 16.1865,9.98151 24.5,6.5 Z"/></g>
<g><path style="opacity:1" fill="#f0f8f6" d="M 17.5,14.5 C 27.0834,14.1816 36.5834,14.5149 46,15.5C 46.82,26.7431 46.6533,37.9098 45.5,49C 35.9223,49.8176 26.4223,49.6509 17,48.5C 16.1901,37.0905 16.3568,25.7572 17.5,14.5 Z"/></g>
<g><path style="opacity:1" fill="#6ab8a8" d="M 19.5,17.5 C 27.5,17.5 35.5,17.5 43.5,17.5C 43.7852,19.288 43.4519,20.9547 42.5,22.5C 40.5188,21.8946 40.1854,20.8946 41.5,19.5C 40.6667,19.1667 39.8333,18.8333 39,18.5C 37.3313,19.1662 35.8313,19.1662 34.5,18.5C 33.4104,19.3914 33.4104,20.3914 34.5,21.5C 29.544,22.4941 24.544,22.8275 19.5,22.5C 19.5,20.8333 19.5,19.1667 19.5,17.5 Z"/></g>
<g><path style="opacity:1" fill="#8fc9bd" d="M 28.5,24.5 C 30.5,24.5 32.5,24.5 34.5,24.5C 34.5,26.1667 34.5,27.8333 34.5,29.5C 32.5,29.5 30.5,29.5 28.5,29.5C 28.5,27.8333 28.5,26.1667 28.5,24.5 Z"/></g>
<g><path style="opacity:1" fill="#98cdc2" d="M 19.5,24.5 C 21.5273,24.3379 23.5273,24.5045 25.5,25C 26.3802,26.3561 26.7135,27.8561 26.5,29.5C 24.1667,29.5 21.8333,29.5 19.5,29.5C 19.5,27.8333 19.5,26.1667 19.5,24.5 Z"/></g>
<g><path style="opacity:1" fill="#9acec3" d="M 36.5,24.5 C 38.8333,24.5 41.1667,24.5 43.5,24.5C 43.5,26.1667 43.5,27.8333 43.5,29.5C 41.1667,29.5 38.8333,29.5 36.5,29.5C 36.5,27.8333 36.5,26.1667 36.5,24.5 Z"/></g>
<g><path style="opacity:1" fill="#9dd0c5" d="M 19.5,30.5 C 21.8333,30.5 24.1667,30.5 26.5,30.5C 26.7135,32.1439 26.3802,33.6439 25.5,35C 23.5273,35.4955 21.5273,35.6621 19.5,35.5C 19.5,33.8333 19.5,32.1667 19.5,30.5 Z"/></g>
<g><path style="opacity:1" fill="#8bc7bb" d="M 36.5,30.5 C 38.5,30.5 40.5,30.5 42.5,30.5C 42.5,31.8333 42.5,33.1667 42.5,34.5C 40.5,34.5 38.5,34.5 36.5,34.5C 36.5,33.1667 36.5,31.8333 36.5,30.5 Z"/></g>
<g><path style="opacity:1" fill="#7bbfb2" d="M 28.5,30.5 C 30.5,30.5 32.5,30.5 34.5,30.5C 34.5,31.8333 34.5,33.1667 34.5,34.5C 32.5,34.5 30.5,34.5 28.5,34.5C 28.5,33.1667 28.5,31.8333 28.5,30.5 Z"/></g>
<g><path style="opacity:1" fill="#8ac7ba" d="M 19.5,36.5 C 21.8333,36.5 24.1667,36.5 26.5,36.5C 26.5,37.8333 26.5,39.1667 26.5,40.5C 24.1667,40.5 21.8333,40.5 19.5,40.5C 19.5,39.1667 19.5,37.8333 19.5,36.5 Z"/></g>
<g><path style="opacity:1" fill="#8cc8bc" d="M 36.5,36.5 C 38.8333,36.5 41.1667,36.5 43.5,36.5C 43.5,37.8333 43.5,39.1667 43.5,40.5C 41.1667,40.5 38.8333,40.5 36.5,40.5C 36.5,39.1667 36.5,37.8333 36.5,36.5 Z"/></g>
<g><path style="opacity:1" fill="#7bc0b2" d="M 28.5,36.5 C 30.5,36.5 32.5,36.5 34.5,36.5C 34.5,37.8333 34.5,39.1667 34.5,40.5C 32.5,40.5 30.5,40.5 28.5,40.5C 28.5,39.1667 28.5,37.8333 28.5,36.5 Z"/></g>
<g><path style="opacity:1" fill="#8bc7bb" d="M 19.5,42.5 C 21.8333,42.5 24.1667,42.5 26.5,42.5C 26.5,43.8333 26.5,45.1667 26.5,46.5C 24.1667,46.5 21.8333,46.5 19.5,46.5C 19.5,45.1667 19.5,43.8333 19.5,42.5 Z"/></g>
<g><path style="opacity:1" fill="#86c5b8" d="M 28.5,42.5 C 30.5,42.5 32.5,42.5 34.5,42.5C 34.5,43.8333 34.5,45.1667 34.5,46.5C 32.5,46.5 30.5,46.5 28.5,46.5C 28.5,45.1667 28.5,43.8333 28.5,42.5 Z"/></g>
<g><path style="opacity:1" fill="#91cabe" d="M 36.5,42.5 C 38.8333,42.5 41.1667,42.5 43.5,42.5C 43.5,43.8333 43.5,45.1667 43.5,46.5C 41.1667,46.5 38.8333,46.5 36.5,46.5C 36.5,45.1667 36.5,43.8333 36.5,42.5 Z"/></g>
</svg>
