<?xml version="1.0" encoding="UTF-8"?>
<!DOCTYPE svg PUBLIC "-//W3C//DTD SVG 1.1//EN" "http://www.w3.org/Graphics/SVG/1.1/DTD/svg11.dtd">
<svg xmlns="http://www.w3.org/2000/svg" version="1.1" width="24px" height="24px" style="shape-rendering:geometricPrecision; text-rendering:geometricPrecision; image-rendering:optimizeQuality; fill-rule:evenodd; clip-rule:evenodd" xmlns:xlink="http://www.w3.org/1999/xlink">
<g><path style="opacity:0.554" fill="#7d304d" d="M -0.5,-0.5 C 1.16667,-0.5 2.83333,-0.5 4.5,-0.5C 4.83333,1.5 5.16667,3.5 5.5,5.5C 4.83333,5.5 4.16667,5.5 3.5,5.5C 2.59603,4.79105 2.26269,3.79105 2.5,2.5C 1.5,2.5 0.5,2.5 -0.5,2.5C -0.5,1.5 -0.5,0.5 -0.5,-0.5 Z"/></g>
<g><path style="opacity:0.894" fill="#e63b5f" d="M 14.5,-0.5 C 15.1667,-0.5 15.8333,-0.5 16.5,-0.5C 16.8333,0.833333 17.1667,0.833333 17.5,-0.5C 18.1667,-0.5 18.8333,-0.5 19.5,-0.5C 19.5,0.166667 19.5,0.833333 19.5,1.5C 17.8333,1.5 16.1667,1.5 14.5,1.5C 14.5,0.833333 14.5,0.166667 14.5,-0.5 Z"/></g>
<g><path style="opacity:0.933" fill="#ffd480" d="M 13.5,2.5 C 13.5,3.5 13.5,4.5 13.5,5.5C 11.1667,5.5 8.83333,5.5 6.5,5.5C 6.5,4.5 6.5,3.5 6.5,2.5C 8.83333,2.5 11.1667,2.5 13.5,2.5 Z"/></g>
<g><path style="opacity:1" fill="#71cd83" d="M 14.5,1.5 C 16.1667,1.5 17.8333,1.5 19.5,1.5C 21.1765,2.18342 21.8432,3.51676 21.5,5.5C 19.1667,5.5 16.8333,5.5 14.5,5.5C 14.1667,5.5 13.8333,5.5 13.5,5.5C 13.5,4.5 13.5,3.5 13.5,2.5C 13.5,1.83333 13.8333,1.5 14.5,1.5 Z"/></g>
<g><path style="opacity:0.911" fill="#f15678" d="M 3.5,5.5 C 4.16667,5.5 4.83333,5.5 5.5,5.5C 5.83333,5.5 6.16667,5.5 6.5,5.5C 8.83333,5.5 11.1667,5.5 13.5,5.5C 13.8333,5.5 14.1667,5.5 14.5,5.5C 14.5,6.5 14.5,7.5 14.5,8.5C 13.8761,8.91695 13.5427,9.58362 13.5,10.5C 13.7472,11.7133 14.4138,12.38 15.5,12.5C 14.7659,13.7079 14.4326,15.0413 14.5,16.5C 12.283,17.3686 9.94965,17.702 7.5,17.5C 6.83333,16.8333 6.16667,16.1667 5.5,15.5C 4.62614,12.2107 3.95947,8.87741 3.5,5.5 Z"/></g>
<g><path style="opacity:1" fill="#da314d" d="M 14.5,5.5 C 16.8333,5.5 19.1667,5.5 21.5,5.5C 22.1667,5.5 22.8333,5.5 23.5,5.5C 23.5,8.16667 23.5,10.8333 23.5,13.5C 22.596,14.209 22.2627,15.209 22.5,16.5C 19.8333,16.5 17.1667,16.5 14.5,16.5C 14.4326,15.0413 14.7659,13.7079 15.5,12.5C 15.7678,10.901 15.4345,9.56764 14.5,8.5C 14.5,7.5 14.5,6.5 14.5,5.5 Z"/></g>
<g><path style="opacity:1" fill="#e2c0d6" d="M 14.5,8.5 C 15.4345,9.56764 15.7678,10.901 15.5,12.5C 14.4138,12.38 13.7472,11.7133 13.5,10.5C 13.5427,9.58362 13.8761,8.91695 14.5,8.5 Z"/></g>
<g><path style="opacity:1" fill="#d9a0ba" d="M 17.5,8.5 C 18.5862,8.61998 19.2528,9.28665 19.5,10.5C 19.1667,11.1667 18.8333,11.8333 18.5,12.5C 17.5713,11.3112 17.238,9.97782 17.5,8.5 Z"/></g>
<g><path style="opacity:0.908" fill="#6b304a" d="M 5.5,15.5 C 6.16667,16.1667 6.83333,16.8333 7.5,17.5C 11.6472,18.3247 15.9805,18.8247 20.5,19C 21.5814,20.7106 21.248,22.2106 19.5,23.5C 18.8333,23.5 18.1667,23.5 17.5,23.5C 15.0747,19.6337 12.7414,19.6337 10.5,23.5C 9.5,23.5 8.5,23.5 7.5,23.5C 6.63215,21.5979 5.63215,19.7645 4.5,18C 4.74325,17.0979 5.07658,16.2646 5.5,15.5 Z"/></g>
</svg>
