<?xml version="1.0" encoding="UTF-8"?>
<!DOCTYPE svg PUBLIC "-//W3C//DTD SVG 1.1//EN" "http://www.w3.org/Graphics/SVG/1.1/DTD/svg11.dtd">
<svg xmlns="http://www.w3.org/2000/svg" version="1.1" width="32px" height="32px" style="shape-rendering:geometricPrecision; text-rendering:geometricPrecision; image-rendering:optimizeQuality; fill-rule:evenodd; clip-rule:evenodd" xmlns:xlink="http://www.w3.org/1999/xlink">
<g><path style="opacity:0.894" fill="#10121b" d="M 20.5,9.5 C 19.5975,12.3915 19.2641,15.3915 19.5,18.5C 19.1667,18.5 18.8333,18.5 18.5,18.5C 18.5,17.1667 18.5,15.8333 18.5,14.5C 18.5,14.1667 18.5,13.8333 18.5,13.5C 18.6602,11.8008 18.4935,10.1341 18,8.5C 17.3292,9.25244 16.4959,9.58577 15.5,9.5C 15.1583,8.66175 14.4916,8.32842 13.5,8.5C 15.2922,7.69088 17.2922,7.19088 19.5,7C 13.5092,6.50051 7.50924,6.33385 1.5,6.5C 1.5,7.5 1.5,8.5 1.5,9.5C 0.833333,9.16667 0.166667,8.83333 -0.5,8.5C -0.5,7.83333 -0.5,7.16667 -0.5,6.5C 0.28913,6.21719 0.955796,5.71719 1.5,5C 7.5,4.33333 13.5,4.33333 19.5,5C 20.3802,6.35613 20.7135,7.85613 20.5,9.5 Z"/></g>
<g><path style="opacity:0.997" fill="#2c3759" d="M 13.5,8.5 C 13.5,8.83333 13.5,9.16667 13.5,9.5C 12.1667,9.5 10.8333,9.5 9.5,9.5C 8.54885,10.9187 8.21552,12.5853 8.5,14.5C 7.16667,15.8333 5.83333,15.8333 4.5,14.5C 3.83333,15.8333 3.16667,17.1667 2.5,18.5C 1.52693,16.0521 1.1936,13.3854 1.5,10.5C 1.5,10.1667 1.5,9.83333 1.5,9.5C 1.5,8.5 1.5,7.5 1.5,6.5C 7.50924,6.33385 13.5092,6.50051 19.5,7C 17.2922,7.19088 15.2922,7.69088 13.5,8.5 Z"/></g>
<g><path style="opacity:1" fill="#e7c49e" d="M 18.5,13.5 C 17.1667,13.5 15.8333,13.5 14.5,13.5C 14.2322,11.901 14.5655,10.5676 15.5,9.5C 16.4959,9.58577 17.3292,9.25244 18,8.5C 18.4935,10.1341 18.6602,11.8008 18.5,13.5 Z"/></g>
<g><path style="opacity:1" fill="#483525" d="M 13.5,8.5 C 14.4916,8.32842 15.1583,8.66175 15.5,9.5C 14.5655,10.5676 14.2322,11.901 14.5,13.5C 15.8333,13.5 17.1667,13.5 18.5,13.5C 18.5,13.8333 18.5,14.1667 18.5,14.5C 17.3121,15.6843 16.1455,15.6843 15,14.5C 14.51,15.7932 14.3433,17.1266 14.5,18.5C 15.8333,18.5 17.1667,18.5 18.5,18.5C 18.8333,18.5 19.1667,18.5 19.5,18.5C 19.5,18.8333 19.5,19.1667 19.5,19.5C 13.9738,19.1786 8.64045,19.5119 3.5,20.5C 2.66175,20.1583 2.32842,19.4916 2.5,18.5C 3.16667,17.1667 3.83333,15.8333 4.5,14.5C 4.5,15.8333 4.5,17.1667 4.5,18.5C 5.83333,18.5 7.16667,18.5 8.5,18.5C 8.5,17.1667 8.5,15.8333 8.5,14.5C 8.21552,12.5853 8.54885,10.9187 9.5,9.5C 9.5,10.8333 9.5,12.1667 9.5,13.5C 10.8333,13.5 12.1667,13.5 13.5,13.5C 13.5,12.1667 13.5,10.8333 13.5,9.5C 13.5,9.16667 13.5,8.83333 13.5,8.5 Z"/></g>
<g><path style="opacity:1" fill="#a0713d" d="M 9.5,9.5 C 10.8333,9.5 12.1667,9.5 13.5,9.5C 13.5,10.8333 13.5,12.1667 13.5,13.5C 12.1667,13.5 10.8333,13.5 9.5,13.5C 9.5,12.1667 9.5,10.8333 9.5,9.5 Z"/></g>
<g><path style="opacity:1" fill="#764c0f" d="M 20.5,9.5 C 21.8333,9.5 23.1667,9.5 24.5,9.5C 24.7822,10.7777 25.4489,11.7777 26.5,12.5C 25.1667,12.5 23.8333,12.5 22.5,12.5C 22.44,11.9569 22.1067,11.6236 21.5,11.5C 21.1667,13 20.8333,14.5 20.5,16C 20.5687,17.9855 21.2353,19.4855 22.5,20.5C 17.8333,21.8333 13.1667,21.8333 8.5,20.5C 12.3714,20.815 16.0381,20.4816 19.5,19.5C 19.5,19.1667 19.5,18.8333 19.5,18.5C 19.2641,15.3915 19.5975,12.3915 20.5,9.5 Z"/></g>
<g><path style="opacity:0.404" fill="#242124" d="M 24.5,9.5 C 29.2686,11.2489 31.6019,14.5822 31.5,19.5C 31.5,20.8333 31.5,22.1667 31.5,23.5C 28.5253,23.3069 26.0253,24.3069 24,26.5C 18.3333,22.5 12.6667,22.5 7,26.5C 5.12952,24.7811 2.96285,23.7811 0.5,23.5C 0.816751,19.2984 0.483418,15.2984 -0.5,11.5C -0.5,11.1667 -0.5,10.8333 -0.5,10.5C 0.166667,10.5 0.833333,10.5 1.5,10.5C 1.1936,13.3854 1.52693,16.0521 2.5,18.5C 2.32842,19.4916 2.66175,20.1583 3.5,20.5C 4.93538,21.0965 6.60204,21.0965 8.5,20.5C 13.1667,21.8333 17.8333,21.8333 22.5,20.5C 24.9491,21.0574 27.2825,21.0574 29.5,20.5C 28.8333,19.8333 28.1667,19.1667 27.5,18.5C 28.6119,17.7348 29.2786,16.7348 29.5,15.5C 28.8333,14.1667 27.8333,13.1667 26.5,12.5C 25.4489,11.7777 24.7822,10.7777 24.5,9.5 Z"/></g>
<g><path style="opacity:1" fill="#c96802" d="M 19.5,19.5 C 16.0381,20.4816 12.3714,20.815 8.5,20.5C 6.60204,21.0965 4.93538,21.0965 3.5,20.5C 8.64045,19.5119 13.9738,19.1786 19.5,19.5 Z"/></g>
<g><path style="opacity:1" fill="#dfab77" d="M 9.5,14.5 C 10.7409,16.9312 11.9076,16.9312 13,14.5C 13.49,15.7932 13.6567,17.1266 13.5,18.5C 12.1667,18.5 10.8333,18.5 9.5,18.5C 9.5,17.1667 9.5,15.8333 9.5,14.5 Z"/></g>
<g><path style="opacity:1" fill="#ecc8a1" d="M 4.5,14.5 C 5.83333,15.8333 7.16667,15.8333 8.5,14.5C 8.5,15.8333 8.5,17.1667 8.5,18.5C 7.16667,18.5 5.83333,18.5 4.5,18.5C 4.5,17.1667 4.5,15.8333 4.5,14.5 Z"/></g>
<g><path style="opacity:1" fill="#ae7f51" d="M 18.5,14.5 C 18.5,15.8333 18.5,17.1667 18.5,18.5C 17.1667,18.5 15.8333,18.5 14.5,18.5C 14.3433,17.1266 14.51,15.7932 15,14.5C 16.1455,15.6843 17.3121,15.6843 18.5,14.5 Z"/></g>
<g><path style="opacity:1" fill="#bebeca" d="M 22.5,12.5 C 23.8333,12.5 25.1667,12.5 26.5,12.5C 27.8333,13.1667 28.8333,14.1667 29.5,15.5C 27.1667,15.5 24.8333,15.5 22.5,15.5C 22.5,14.5 22.5,13.5 22.5,12.5 Z"/></g>
<g><path style="opacity:1" fill="#d9ab2b" d="M 22.5,12.5 C 22.5,13.5 22.5,14.5 22.5,15.5C 24.8333,15.5 27.1667,15.5 29.5,15.5C 29.2786,16.7348 28.6119,17.7348 27.5,18.5C 28.1667,19.1667 28.8333,19.8333 29.5,20.5C 27.2825,21.0574 24.9491,21.0574 22.5,20.5C 21.2353,19.4855 20.5687,17.9855 20.5,16C 20.8333,14.5 21.1667,13 21.5,11.5C 22.1067,11.6236 22.44,11.9569 22.5,12.5 Z"/></g>
</svg>
