<?xml version="1.0" encoding="UTF-8"?>
<!DOCTYPE svg PUBLIC "-//W3C//DTD SVG 1.1//EN" "http://www.w3.org/Graphics/SVG/1.1/DTD/svg11.dtd">
<svg xmlns="http://www.w3.org/2000/svg" version="1.1" width="64px" height="64px" style="shape-rendering:geometricPrecision; text-rendering:geometricPrecision; image-rendering:optimizeQuality; fill-rule:evenodd; clip-rule:evenodd" xmlns:xlink="http://www.w3.org/1999/xlink">
<g><path style="opacity:0.964" fill="#fede46" d="M 23.5,-0.5 C 28.8333,-0.5 34.1667,-0.5 39.5,-0.5C 50.3282,2.90141 57.6616,9.90141 61.5,20.5C 59.5,18.8333 57.5,17.1667 55.5,15.5C 54.1667,13.5 52.5,11.8333 50.5,10.5C 49.2942,7.86094 47.2942,7.02761 44.5,8C 42.6266,9.70383 40.9599,11.5372 39.5,13.5C 38.5,13.8333 37.8333,14.5 37.5,15.5C 30.1667,22.1667 23.1667,29.1667 16.5,36.5C 14.2149,39.335 12.8816,42.6684 12.5,46.5C 11.4625,47.9303 10.7959,49.597 10.5,51.5C 9.95691,51.56 9.62358,51.8933 9.5,52.5C 12.2659,54.2593 14.2659,56.5927 15.5,59.5C 7.57326,54.9067 2.23993,48.2401 -0.5,39.5C -0.5,34.1667 -0.5,28.8333 -0.5,23.5C 1.26512,17.9779 4.09846,12.9779 8,8.5C 12.5995,4.37379 17.7662,1.37379 23.5,-0.5 Z"/></g>
<g><path style="opacity:1" fill="#fc1335" d="M 50.5,10.5 C 49.9464,14.0548 47.9464,16.3882 44.5,17.5C 42.8333,16.1667 41.1667,14.8333 39.5,13.5C 40.9599,11.5372 42.6266,9.70383 44.5,8C 47.2942,7.02761 49.2942,7.86094 50.5,10.5 Z"/></g>
<g><path style="opacity:1" fill="#c7131f" d="M 50.5,10.5 C 52.5,11.8333 54.1667,13.5 55.5,15.5C 55.3484,19.1407 53.6818,21.8073 50.5,23.5C 48.5,21.8333 46.5,20.1667 44.5,18.5C 44.5,18.1667 44.5,17.8333 44.5,17.5C 47.9464,16.3882 49.9464,14.0548 50.5,10.5 Z"/></g>
<g><path style="opacity:1" fill="#fcf6f7" d="M 39.5,13.5 C 41.1667,14.8333 42.8333,16.1667 44.5,17.5C 44.5,17.8333 44.5,18.1667 44.5,18.5C 44.1667,19.5 43.5,20.1667 42.5,20.5C 42.1667,20.5 41.8333,20.5 41.5,20.5C 40.1667,18.8333 38.8333,17.1667 37.5,15.5C 37.8333,14.5 38.5,13.8333 39.5,13.5 Z"/></g>
<g><path style="opacity:1" fill="#e37403" d="M 37.5,15.5 C 38.8333,17.1667 40.1667,18.8333 41.5,20.5C 35.5295,28.1378 28.8628,35.1378 21.5,41.5C 21.1667,41.5 20.8333,41.5 20.5,41.5C 19.1667,39.8333 17.8333,38.1667 16.5,36.5C 23.1667,29.1667 30.1667,22.1667 37.5,15.5 Z"/></g>
<g><path style="opacity:1" fill="#fdbf03" d="M 55.5,15.5 C 57.5,17.1667 59.5,18.8333 61.5,20.5C 62.1667,21.5 62.8333,22.5 63.5,23.5C 63.5,28.8333 63.5,34.1667 63.5,39.5C 61.7349,45.0221 58.9015,50.0221 55,54.5C 50.4005,58.6262 45.2338,61.6262 39.5,63.5C 34.1667,63.5 28.8333,63.5 23.5,63.5C 20.7458,62.3586 18.0791,61.0252 15.5,59.5C 14.2659,56.5927 12.2659,54.2593 9.5,52.5C 9.62358,51.8933 9.95691,51.56 10.5,51.5C 12.7939,52.3269 15.1272,51.9936 17.5,50.5C 21.1488,49.7333 24.4822,48.3999 27.5,46.5C 34.1667,39.5 40.8333,32.5 47.5,25.5C 48.7095,25.0679 49.7095,24.4013 50.5,23.5C 53.6818,21.8073 55.3484,19.1407 55.5,15.5 Z"/></g>
<g><path style="opacity:1" fill="#cac4c9" d="M 44.5,18.5 C 46.5,20.1667 48.5,21.8333 50.5,23.5C 49.7095,24.4013 48.7095,25.0679 47.5,25.5C 45.5,24.1667 43.8333,22.5 42.5,20.5C 43.5,20.1667 44.1667,19.5 44.5,18.5 Z"/></g>
<g><path style="opacity:1" fill="#9b4d00" d="M 41.5,20.5 C 41.8333,20.5 42.1667,20.5 42.5,20.5C 43.8333,22.5 45.5,24.1667 47.5,25.5C 40.8333,32.5 34.1667,39.5 27.5,46.5C 24.9108,45.5806 22.9108,43.914 21.5,41.5C 28.8628,35.1378 35.5295,28.1378 41.5,20.5 Z"/></g>
<g><path style="opacity:1" fill="#f9bd6a" d="M 16.5,36.5 C 17.8333,38.1667 19.1667,39.8333 20.5,41.5C 18.4202,43.5732 16.7536,45.9066 15.5,48.5C 14.5,47.8333 13.5,47.1667 12.5,46.5C 12.8816,42.6684 14.2149,39.335 16.5,36.5 Z"/></g>
<g><path style="opacity:1" fill="#fcaa26" d="M 20.5,41.5 C 20.8333,41.5 21.1667,41.5 21.5,41.5C 22.9108,43.914 24.9108,45.5806 27.5,46.5C 24.4822,48.3999 21.1488,49.7333 17.5,50.5C 17.1667,49.5 16.5,48.8333 15.5,48.5C 16.7536,45.9066 18.4202,43.5732 20.5,41.5 Z"/></g>
<g><path style="opacity:1" fill="#463c33" d="M 12.5,46.5 C 13.5,47.1667 14.5,47.8333 15.5,48.5C 16.5,48.8333 17.1667,49.5 17.5,50.5C 15.1272,51.9936 12.7939,52.3269 10.5,51.5C 10.7959,49.597 11.4625,47.9303 12.5,46.5 Z"/></g>
</svg>
